<?xml version="1.0" encoding="utf-8"?>
<!-- Generator: Adobe Illustrator 23.1.1, SVG Export Plug-In . SVG Version: 6.00 Build 0)  -->
<svg version="1.1" id="SvgjsSvg1022" transform="" xmlns:svgjs="http://svgjs.com/svgjs"
	 xmlns="http://www.w3.org/2000/svg" xmlns:xlink="http://www.w3.org/1999/xlink" x="0px" y="0px" viewBox="0 0 1980.7 1920.9"
	 style="enable-background:new 0 0 1980.7 1920.9;" xml:space="preserve">
<style type="text/css">
	.st0{fill:#FFFFFF;}
</style>
<g id="SvgjsG1025" transform="rotate(0 196.75 80.0078125)">
	<g>
		<g>
			<path class="st0" d="M1706.3,1491.4c-41,0-79.1,11.7-111.7,31.7l-343.6-406.1c45.5-49,73.5-114.3,73.5-186.3
				c0-45.8-11.4-89-31.4-127l312.3-208.1c39.4,44.4,96.7,72.6,160.6,72.6c118.4,0,214.8-96.4,214.8-214.8s-96.3-214.8-214.8-214.8
				c-118.4,0-214.8,96.4-214.8,214.8c0,28.8,5.8,56.3,16.2,81.4l-315.6,210.3c-50.2-54.5-121.9-89-201.7-89
				c-45.8,0-89,11.4-127,31.4c-40.8-61.2-163.2-244.7-208.2-312.2c44.4-39.4,72.6-96.7,72.6-160.6C787.5,96.4,691.2,0,572.7,0
				S358,96.4,358,214.8s96.4,214.8,214.8,214.8c28.8,0,56.3-5.8,81.4-16.2l103.5,155.3c56.8,85.2,88.5,132.8,107.7,159.5
				c-46.7,42.6-78.6,100.9-87.2,166.7H426.3C409.2,793.4,321,715.9,214.8,715.9C96.4,715.9,0,812.2,0,930.6
				c0,118.4,96.4,214.8,214.8,214.8c106.2,0,194.4-77.6,211.5-179h351.9c11.5,87.7,64.3,162.4,138.4,203.8l-73.9,264.1
				c-10.3-1.5-20.7-2.6-31.4-2.6c-118.4,0-214.8,96.3-214.8,214.8c0,118.4,96.4,214.8,214.8,214.8s214.8-96.3,214.8-214.8
				c0-82.5-46.8-154.2-115.2-190.1l72.7-259.8c21.3,5.3,43.5,8.5,66.4,8.5c53.6,0,103.5-15.7,145.8-42.4l344.6,407.2
				c-30.5,37.1-48.9,84.6-48.9,136.3c0,118.4,96.3,214.8,214.8,214.8c118.4,0,214.8-96.3,214.8-214.8
				C1921.1,1587.7,1824.7,1491.4,1706.3,1491.4z M1765.9,310.2c79,0,143.2,64.2,143.2,143.2s-64.2,143.2-143.2,143.2
				s-143.2-64.2-143.2-143.2S1687,310.2,1765.9,310.2z M429.6,214.8c0-79,64.2-143.2,143.2-143.2s143.2,64.2,143.2,143.2
				s-64.2,143.2-143.2,143.2S429.6,293.7,429.6,214.8z M954.6,1646.5c0,79-64.2,143.2-143.2,143.2s-143.2-64.2-143.2-143.2
				c0-79,64.2-143.2,143.2-143.2S954.6,1567.5,954.6,1646.5z M214.8,1073.8c-79,0-143.2-64.2-143.2-143.2s64.2-143.2,143.2-143.2
				S358,851.7,358,930.6S293.7,1073.8,214.8,1073.8z M847.2,930.6c0-111.8,91-202.8,202.8-202.8s202.8,91,202.8,202.8
				c0,61.4-27.5,116.4-70.8,153.6c-1.2,0.8-2.5,1.5-3.6,2.5c-0.9,0.8-1.6,1.7-2.5,2.6c-34.7,27.6-78.4,44.1-126,44.1
				C938.2,1133.4,847.2,1042.5,847.2,930.6z M1706.3,1849.3c-79,0-143.2-64.2-143.2-143.2c0-79,64.2-143.2,143.2-143.2
				s143.2,64.2,143.2,143.2C1849.5,1785.1,1785.2,1849.3,1706.3,1849.3z"/>
			<path class="st0" d="M572.7,131.2c-13.2,0-23.9,10.7-23.9,23.9c0,13.2,10.7,23.9,23.9,23.9c19.7,0,35.8,16.1,35.8,35.8
				c0,13.2,10.7,23.9,23.9,23.9c13.2,0,23.9-10.7,23.9-23.9C656.3,168.7,618.8,131.2,572.7,131.2z"/>
			<path class="st0" d="M1765.9,417.6c19.7,0,35.8,16.1,35.8,35.8c0,13.2,10.7,23.9,23.9,23.9c13.2,0,23.9-10.7,23.9-23.9
				c0-46.1-37.5-83.5-83.5-83.5c-13.2,0-23.9,10.7-23.9,23.9S1752.7,417.6,1765.9,417.6z"/>
			<path class="st0" d="M1193.2,930.6c0-79-64.2-143.2-143.2-143.2c-13.2,0-23.9,10.7-23.9,23.9c0,13.2,10.7,23.9,23.9,23.9
				c52.6,0,95.5,42.8,95.5,95.4c0,13.2,10.7,23.9,23.9,23.9C1182.5,954.5,1193.2,943.8,1193.2,930.6z"/>
			<path class="st0" d="M1706.3,1622.6c-13.2,0-23.9,10.7-23.9,23.9c0,13.2,10.7,23.9,23.9,23.9c19.7,0,35.8,16.1,35.8,35.8
				c0,13.2,10.7,23.9,23.9,23.9c13.2,0,23.9-10.7,23.9-23.9C1789.8,1660.1,1752.3,1622.6,1706.3,1622.6z"/>
			<path class="st0" d="M787.5,1586.8c0,13.2,10.7,23.9,23.9,23.9c19.7,0,35.8,16.1,35.8,35.8c0,13.2,10.7,23.9,23.9,23.9
				s23.9-10.7,23.9-23.9c0-46.1-37.5-83.5-83.5-83.5C798.2,1563,787.5,1573.6,787.5,1586.8z"/>
			<path class="st0" d="M214.8,847.1c-13.2,0-23.9,10.7-23.9,23.9c0,13.2,10.7,23.9,23.9,23.9c19.7,0,35.8,16.1,35.8,35.8
				c0,13.2,10.7,23.9,23.9,23.9s23.9-10.7,23.9-23.9C298.3,884.6,260.8,847.1,214.8,847.1z"/>
		</g>
	</g>
</g>
</svg>
