<svg id="SvgjsSvg1022" width="5000px" height="3104.8129947105826px" xmlns="http://www.w3.org/2000/svg" version="1.1" xmlns:xlink="http://www.w3.org/1999/xlink" xmlns:svgjs="http://svgjs.com/svgjs" viewBox="0 0 416.515625 258.640625"><defs id="SvgjsDefs1023"></defs><g id="SvgjsG1025" transform="rotate(0 196.75 80.0078125)"><svg width="165" viewBox="0 0 83 80.5" xmlns="http://www.w3.org/2000/svg" version="1.1" xmlns:xlink="http://www.w3.org/1999/xlink" xmlns:svgjs="http://svgjs.com/svgjs" preserveAspectRatio="none" height="160.015625" x="114.25" y="0"><g><svg data-color="1" xmlns:x="http://ns.adobe.com/Extensibility/1.0/" xmlns:i="http://ns.adobe.com/AdobeIllustrator/10.0/" xmlns:graph="http://ns.adobe.com/Graphs/1.0/" xmlns="http://www.w3.org/2000/svg" xmlns:xlink="http://www.w3.org/1999/xlink" version="1.1" x="0px" y="0px" viewBox="6 11 83 80.5" enable-background="new 0 0 100 100" xml:space="preserve" width="83" height="80.5" fill="#FFFFFF"><metadata><sfw xmlns="http://ns.adobe.com/SaveForWeb/1.0/"><slices></slices><slicesourcebounds y="8.5" x="6" width="83" height="80.5" bottomleftorigin="true"></slicesourcebounds><optimizationsettings><targetsettings targetsettingsid="0" fileformat="GIFFormat"><gifformat transparency="true" lossy="0" mattecolor="#FFFFFF" interlaced="false" nomattecolor="false" webshiftpercent="0" includecaption="false" reductionalgorithm="selective" ditheralgorithm="diffusion" ditherpercent="100" numcolors="256" rollovermasterpalette="false" autoreduce="false"><colortable isexact="false"></colortable><lockedcolors></lockedcolors><colorshiftentries></colorshiftentries></gifformat></targetsettings></optimizationsettings></sfw></metadata><g><path d="M77.5,73.5c-1.716,0-3.314,0.491-4.681,1.327l-14.4-17.02C60.324,55.755,61.5,53.016,61.5,50   c0-1.92-0.479-3.729-1.314-5.321l13.085-8.723C74.921,37.818,77.322,39,80,39c4.963,0,9-4.038,9-9s-4.037-9-9-9s-9,4.038-9,9   c0,1.208,0.243,2.359,0.677,3.413l-13.225,8.815C56.349,39.943,53.344,38.5,50,38.5c-1.92,0-3.728,0.479-5.321,1.314   c-1.709-2.563-6.837-10.256-8.723-13.085C37.818,25.079,39,22.678,39,20c0-4.962-4.038-9-9-9s-9,4.038-9,9s4.038,9,9,9   c1.208,0,2.359-0.243,3.413-0.677l4.338,6.508c2.381,3.572,3.709,5.564,4.513,6.684c-1.957,1.786-3.293,4.23-3.655,6.984H23.864   C23.147,44.25,19.45,41,15,41c-4.962,0-9,4.038-9,9c0,4.963,4.038,9,9,9c4.45,0,8.147-3.25,8.864-7.5h14.745   c0.482,3.674,2.696,6.806,5.801,8.541l-3.095,11.066C40.885,71.044,40.448,71,40,71c-4.962,0-9,4.037-9,9s4.038,9,9,9s9-4.037,9-9   c0-3.457-1.962-6.461-4.829-7.968l3.045-10.887C48.109,61.368,49.039,61.5,50,61.5c2.246,0,4.338-0.657,6.11-1.775L70.55,76.789   c-1.28,1.555-2.05,3.545-2.05,5.711c0,4.963,4.037,9,9,9s9-4.037,9-9S82.463,73.5,77.5,73.5z M80,24c3.309,0,6,2.691,6,6   s-2.691,6-6,6s-6-2.691-6-6S76.691,24,80,24z M24,20c0-3.309,2.691-6,6-6s6,2.691,6,6s-2.691,6-6,6S24,23.309,24,20z M46,80   c0,3.309-2.691,6-6,6s-6-2.691-6-6s2.691-6,6-6S46,76.691,46,80z M15,56c-3.309,0-6-2.691-6-6s2.691-6,6-6s6,2.691,6,6   S18.309,56,15,56z M41.5,50c0-4.687,3.813-8.5,8.5-8.5c4.687,0,8.5,3.813,8.5,8.5c0,2.574-1.154,4.88-2.968,6.439   c-0.051,0.033-0.103,0.062-0.149,0.103c-0.039,0.033-0.069,0.072-0.104,0.108C53.826,57.805,51.994,58.5,50,58.5   C45.313,58.5,41.5,54.687,41.5,50z M77.5,88.5c-3.309,0-6-2.691-6-6s2.691-6,6-6s6,2.691,6,6S80.809,88.5,77.5,88.5z"></path><path d="M30,16.5c-0.552,0-1,0.448-1,1s0.448,1,1,1c0.827,0,1.5,0.673,1.5,1.5c0,0.552,0.448,1,1,1s1-0.448,1-1   C33.5,18.07,31.93,16.5,30,16.5z"></path><path d="M80,28.5c0.827,0,1.5,0.673,1.5,1.5c0,0.552,0.447,1,1,1s1-0.448,1-1c0-1.93-1.57-3.5-3.5-3.5c-0.553,0-1,0.448-1,1   S79.447,28.5,80,28.5z"></path><path d="M56,50c0-3.309-2.691-6-6-6c-0.552,0-1,0.448-1,1s0.448,1,1,1c2.206,0,4,1.794,4,4c0,0.552,0.447,1,1,1S56,50.552,56,50z"></path><path d="M77.5,79c-0.553,0-1,0.447-1,1s0.447,1,1,1c0.827,0,1.5,0.673,1.5,1.5c0,0.553,0.447,1,1,1s1-0.447,1-1   C81,80.57,79.43,79,77.5,79z"></path><path d="M39,77.5c0,0.553,0.448,1,1,1c0.827,0,1.5,0.673,1.5,1.5c0,0.553,0.448,1,1,1s1-0.447,1-1c0-1.93-1.57-3.5-3.5-3.5   C39.448,76.5,39,76.947,39,77.5z"></path><path d="M15,46.5c-0.552,0-1,0.448-1,1s0.448,1,1,1c0.827,0,1.5,0.673,1.5,1.5c0,0.552,0.448,1,1,1s1-0.448,1-1   C18.5,48.07,16.93,46.5,15,46.5z"></path></g></svg></g><defs id="SvgjsDefs1024"></defs></svg></g><g id="SvgjsG1027" transform="rotate(0 208.2578125 202.1953125)"><svg xmlns="http://www.w3.org/2000/svg" xmlns:xlink="http://www.w3.org/1999/xlink" width="416.515625" viewBox="0.699999988079071 12.270000457763672 416.5299987792969 28.369998931884766" overflow="visible" style="overflow: visible;" transform="" version="1.1" xmlns:svgjs="http://svgjs.com/svgjs" preserveAspectRatio="none" height="28.359375" x="0" y="188.015625" fill="#000000" stroke="none"><path stroke="none" fill="#FFFFFF" d="M26.86 30.09L26.86 30.09L26.86 30.09Q26.56 32.73 25.47 34.76L25.47 34.76L25.47 34.76Q24.38 36.79 22.68 38.07L22.68 38.07L22.68 38.07Q20.97 39.34 18.80 39.99L18.80 39.99L18.80 39.99Q16.63 40.64 14.06 40.64L14.06 40.64L14.06 40.64Q11.67 40.64 9.70 40.12L9.70 40.12L9.70 40.12Q7.73 39.60 6.38 38.74L6.38 38.74L6.38 38.74Q5.03 37.88 3.99 36.64L3.99 36.64L3.99 36.64Q2.95 35.40 2.34 34.09L2.34 34.09L2.34 34.09Q1.72 32.78 1.34 31.23L1.34 31.23L1.34 31.23Q0.97 29.67 0.83 28.33L0.83 28.33L0.83 28.33Q0.70 26.98 0.70 25.52L0.70 25.52L0.70 23.98L0.70 23.98Q0.88 21.41 1.90 19.36L1.90 19.36L1.90 19.36Q2.92 17.31 4.38 16.06L4.38 16.06L4.38 16.06Q5.84 14.80 7.72 13.97L7.72 13.97L7.72 13.97Q9.60 13.13 11.37 12.81L11.37 12.81L11.37 12.81Q13.15 12.48 14.91 12.48L14.91 12.48L14.91 12.48Q17.74 12.48 19.91 13.16L19.91 13.16L19.91 13.16Q22.08 13.83 23.45 15.06L23.45 15.06L23.45 15.06Q24.82 16.29 25.59 17.89L25.59 17.89L25.59 17.89Q26.37 19.48 26.58 21.45L26.58 21.45L26.58 23.13L26.58 23.13Q26.58 23.70 22.71 23.70L22.71 23.70L22.71 23.70Q21.80 23.70 20.17 23.66L20.17 23.66L20.17 23.66Q18.54 23.63 18.04 23.63L18.04 23.63L18.04 23.63Q17.95 23.63 17.77 23.64L17.77 23.64L17.77 23.64Q17.60 23.66 17.51 23.66L17.51 23.66L17.51 23.66Q17.05 23.66 16.81 23.28L16.81 23.28L16.81 23.28Q16.58 22.90 16.50 22.36L16.50 22.36L16.50 22.36Q16.42 21.81 16.30 21.27L16.30 21.27L16.30 21.27Q16.19 20.72 15.83 20.35L15.83 20.35L15.83 20.35Q15.47 19.97 14.84 19.97L14.84 19.97L14.84 19.97Q14.20 19.97 13.73 20.18L13.73 20.18L13.73 20.18Q13.25 20.39 12.97 20.84L12.97 20.84L12.97 20.84Q12.69 21.29 12.51 21.74L12.51 21.74L12.51 21.74Q12.32 22.20 12.24 22.93L12.24 22.93L12.24 22.93Q12.16 23.66 12.14 24.16L12.14 24.16L12.14 24.16Q12.11 24.66 12.09 25.50L12.09 25.50L12.09 25.50Q12.08 26.33 12.06 26.72L12.06 26.72L12.06 26.72Q12.06 26.93 12.02 27.49L12.02 27.49L12.02 27.49Q11.99 28.05 11.99 28.41L11.99 28.41L11.99 28.41Q11.99 32.78 14.31 32.91L14.31 32.91L14.31 32.91Q14.94 32.91 15.35 32.45L15.35 32.45L15.35 32.45Q15.75 31.99 15.90 31.43L15.90 31.43L15.90 31.43Q16.05 30.87 16.24 30.24L16.24 30.24L16.24 30.24Q16.44 29.62 16.66 29.39L16.66 29.39L26.23 29.39L26.23 29.39Q26.81 29.44 26.86 30.09ZM27.70 27.84L27.70 26.79L27.67 26.40L27.67 26.40Q28.00 23.54 28.30 22.41L28.30 22.41L28.30 22.41Q28.99 19.78 30.76 18L30.76 18L31.18 17.58L31.18 17.58Q32.03 16.59 33.75 15.89L33.75 15.89L34.42 15.89L34.42 15.89Q36.14 15.17 40.08 14.55L40.08 14.55L40.08 14.55Q41.06 14.55 42.14 14.70L42.14 14.70L42.14 14.70Q43.22 14.85 44.54 15.20L44.54 15.20L44.54 15.20Q45.86 15.54 47.08 16.29L47.08 16.29L47.08 16.29Q48.30 17.03 49.11 18.07L49.11 18.07L49.11 18.56L49.11 18.56Q52.00 22.17 52.00 26.65L52.00 26.65L52.00 26.65Q52.00 31.69 49.68 34.88L49.68 34.88L48.97 35.75L48.97 35.75Q48.16 36.76 46.96 37.48L46.96 37.48L46.96 37.48Q45.76 38.20 44.40 38.58L44.40 38.58L44.40 38.58Q43.05 38.95 41.81 39.11L41.81 39.11L41.81 39.11Q40.57 39.27 39.34 39.27L39.34 39.27L39.34 39.27Q37.53 39.27 35.89 38.84L35.89 38.84L35.89 38.84Q34.24 38.41 32.81 37.49L32.81 37.49L32.81 37.49Q31.38 36.58 30.29 35.24L30.29 35.24L30.29 35.24Q29.20 33.91 28.52 32.02L28.52 32.02L28.52 32.02Q27.84 30.13 27.70 27.84L27.70 27.84ZM37.37 26.16L37.37 26.93L37.37 26.93Q37.37 33.12 39.73 33.12L39.73 33.12L39.73 33.12Q40.38 33.12 40.86 32.87L40.86 32.87L40.86 32.87Q41.34 32.63 41.64 32.12L41.64 32.12L41.64 32.12Q41.94 31.61 42.13 31.08L42.13 31.08L42.13 31.08Q42.33 30.55 42.41 29.76L42.41 29.76L42.41 29.76Q42.49 28.97 42.51 28.37L42.51 28.37L42.51 28.37Q42.54 27.77 42.54 26.93L42.54 26.93L42.54 26.30L42.54 26.30Q42.54 25.38 42.43 24.54L42.43 24.54L42.43 24.54Q42.33 23.70 42.07 22.84L42.07 22.84L42.07 22.84Q41.82 21.99 41.29 21.47L41.29 21.47L41.29 21.47Q40.76 20.95 40.01 20.95L40.01 20.95L40.01 20.95Q37.37 20.95 37.37 26.16L37.37 26.16ZM71.79 15.33L77.80 15.33L77.80 15.33Q78.01 15.40 78.13 15.93L78.13 15.93L78.13 15.93Q78.24 16.47 78.26 17.28L78.26 17.28L78.26 17.28Q78.28 18.09 78.26 18.83L78.26 18.83L78.26 18.83Q78.24 19.56 78.21 20.34L78.21 20.34L78.21 20.34Q78.19 21.11 78.19 21.30L78.19 21.30L78.19 21.30Q78.15 22.01 78.15 23.27L78.15 23.27L78.15 25.14L78.15 25.14Q78.15 26.37 78.19 28.51L78.19 28.51L78.19 28.51Q78.22 30.66 78.22 31.68L78.22 31.68L78.22 38.07L78.22 38.07Q78.15 38.67 77.24 38.67L77.24 38.67L67.39 38.67L67.39 38.67Q67.08 38.60 66.59 37.20L66.59 37.20L66.59 37.20Q66.25 36.26 65.47 34.14L65.47 34.14L65.47 34.14Q64.69 32.01 64.13 30.40L64.13 30.40L64.13 30.40Q63.56 28.79 63.11 27.28L63.11 27.28L63.11 27.18L63.11 27.28L63.11 27.28Q63.05 28.44 63 30.74L63 30.74L63 30.74Q62.95 33.03 62.89 34.17L62.89 34.17L62.89 37.76L62.89 37.76Q62.89 38.29 62.77 38.49L62.77 38.49L62.77 38.49Q62.65 38.69 62.12 38.81L62.12 38.81L54.88 38.81L54.11 38.04L54.11 38.04Q54.19 35.12 54.25 28.90L54.25 28.90L54.25 28.90Q54.30 22.68 54.39 19.69L54.39 19.69L54.39 15.89L54.39 15.89Q54.56 15.26 54.81 15.26L54.81 15.26L54.81 15.33L54.81 15.33Q56.00 15.33 58.56 15.26L58.56 15.26L58.56 15.26Q61.12 15.19 62.40 15.19L62.40 15.19L65.36 15.19L65.36 15.19Q65.37 15.19 65.41 15.21L65.41 15.21L65.41 15.21Q65.72 15.33 65.76 15.49L65.76 15.49L65.78 15.61L65.78 15.61Q66.41 17.31 67.06 19.14L67.06 19.14L67.06 19.14Q67.71 20.97 68.61 23.56L68.61 23.56L68.61 23.56Q69.50 26.16 69.86 27.14L69.86 27.14L69.86 24.54L69.86 24.54Q70.21 18.35 70.21 15.75L70.21 15.75L70.21 15.75Q70.21 15.47 70.59 15.40L70.59 15.40L70.59 15.40Q70.98 15.33 71.79 15.33L71.79 15.33ZM99 15.33L105.01 15.33L105.01 15.33Q105.22 15.40 105.34 15.93L105.34 15.93L105.34 15.93Q105.45 16.47 105.47 17.28L105.47 17.28L105.47 17.28Q105.49 18.09 105.47 18.83L105.47 18.83L105.47 18.83Q105.45 19.56 105.42 20.34L105.42 20.34L105.42 20.34Q105.40 21.11 105.40 21.30L105.40 21.30L105.40 21.30Q105.36 22.01 105.36 23.27L105.36 23.27L105.36 25.14L105.36 25.14Q105.36 26.37 105.40 28.51L105.40 28.51L105.40 28.51Q105.43 30.66 105.43 31.68L105.43 31.68L105.43 38.07L105.43 38.07Q105.36 38.67 104.45 38.67L104.45 38.67L94.61 38.67L94.61 38.67Q94.29 38.60 93.80 37.20L93.80 37.20L93.80 37.20Q93.46 36.26 92.68 34.14L92.68 34.14L92.68 34.14Q91.90 32.01 91.34 30.40L91.34 30.40L91.34 30.40Q90.77 28.79 90.32 27.28L90.32 27.28L90.32 27.18L90.32 27.28L90.32 27.28Q90.26 28.44 90.21 30.74L90.21 30.74L90.21 30.74Q90.16 33.03 90.11 34.17L90.11 34.17L90.11 37.76L90.11 37.76Q90.11 38.29 89.98 38.49L89.98 38.49L89.98 38.49Q89.86 38.69 89.33 38.81L89.33 38.81L82.09 38.81L81.32 38.04L81.32 38.04Q81.40 35.12 81.46 28.90L81.46 28.90L81.46 28.90Q81.51 22.68 81.60 19.69L81.60 19.69L81.60 15.89L81.60 15.89Q81.77 15.26 82.02 15.26L82.02 15.26L82.02 15.33L82.02 15.33Q83.21 15.33 85.77 15.26L85.77 15.26L85.77 15.26Q88.33 15.19 89.61 15.19L89.61 15.19L92.57 15.19L92.57 15.19Q92.58 15.19 92.62 15.21L92.62 15.21L92.62 15.21Q92.94 15.33 92.97 15.49L92.97 15.49L92.99 15.61L92.99 15.61Q93.62 17.31 94.27 19.14L94.27 19.14L94.27 19.14Q94.92 20.97 95.82 23.56L95.82 23.56L95.82 23.56Q96.71 26.16 97.07 27.14L97.07 27.14L97.07 24.54L97.07 24.54Q97.42 18.35 97.42 15.75L97.42 15.75L97.42 15.75Q97.42 15.47 97.80 15.40L97.80 15.40L97.80 15.40Q98.19 15.33 99 15.33L99 15.33ZM108.81 38.21L108.81 16.80L108.81 16.80Q108.81 15.75 108.90 15.57L108.90 15.57L108.90 15.57Q109.05 15.33 109.41 15.33L109.41 15.33L109.83 15.33L109.83 15.33Q110.11 15.33 110.21 15.36L110.21 15.36L111.13 15.36L111.13 15.36Q112.90 15.36 116.50 15.28L116.50 15.28L116.50 15.28Q120.09 15.19 121.89 15.19L121.89 15.19L126.56 15.19L126.56 15.19Q127.02 15.24 127.02 15.64L127.02 15.64L127.02 21.52L127.02 21.52Q127.00 21.62 126.96 21.70L126.96 21.70L126.96 21.70Q126.91 21.78 126.89 21.81L126.89 21.81L126.89 21.81Q126.86 21.83 126.72 21.93L126.72 21.93L126.72 21.93Q126.58 22.03 126.53 22.08L126.53 22.08L118.37 22.08L118.37 24.26L119.14 24.26L119.14 24.26Q120.16 24.26 122.26 24.19L122.26 24.19L122.26 24.19Q124.35 24.12 125.47 24.12L125.47 24.12L125.47 24.12Q125.96 24.12 126.14 24.31L126.14 24.31L126.14 24.31Q126.32 24.50 126.32 24.86L126.32 24.86L126.32 24.86Q126.32 24.94 126.28 25.15L126.28 25.15L126.28 25.15Q126.25 25.37 126.25 25.45L126.25 25.45L126.25 26.12L126.25 26.12Q126.25 26.19 126.26 26.41L126.26 26.41L126.26 26.41Q126.28 26.63 126.28 26.79L126.28 26.79L126.28 27.28L126.28 27.28Q126.28 27.67 126.32 28.05L126.32 28.05L126.32 28.05Q126.35 28.44 126.35 28.72L126.35 28.72L126.35 29.18L126.35 29.18Q126.26 29.39 126.21 29.46L126.21 29.46L126.21 29.46Q126.16 29.53 126.04 29.53L126.04 29.53L126.04 29.50L126.04 29.50Q125.38 29.50 123.79 29.58L123.79 29.58L123.79 29.58Q122.20 29.67 121.25 29.67L121.25 29.67L118.44 29.67L118.44 31.92L118.44 31.92Q118.58 31.92 118.86 31.94L118.86 31.94L118.86 31.94Q119.14 31.96 119.29 31.96L119.29 31.96L119.29 31.96Q120.08 31.96 121.62 31.90L121.62 31.90L121.62 31.90Q123.17 31.85 123.86 31.85L123.86 31.85L126.11 31.85L126.11 31.85Q127.02 31.85 127.27 32.06L127.27 32.06L127.27 32.06Q127.35 32.17 127.41 32.27L127.41 32.27L127.41 37.90L127.41 37.90Q127.41 38.27 127.27 38.46L127.27 38.46L127.27 38.46Q127.13 38.65 126.74 38.67L126.74 38.67L109.34 38.67L108.81 38.21ZM140.63 39.38L140.63 39.38L140.63 39.38Q137.69 39.38 135.35 38.38L135.35 38.38L135.35 38.38Q133.01 37.39 131.52 35.63L131.52 35.63L131.52 35.63Q130.03 33.87 129.24 31.53L129.24 31.53L129.24 31.53Q128.46 29.18 128.46 26.40L128.46 26.40L128.46 26.16L128.46 26.16Q128.48 26.03 128.52 25.55L128.52 25.55L128.52 25.55Q128.57 25.07 128.58 24.92L128.58 24.92L128.58 24.92Q128.58 24.77 128.64 24.35L128.64 24.35L128.64 24.35Q128.69 23.92 128.72 23.73L128.72 23.73L128.72 23.73Q128.76 23.54 128.82 23.17L128.82 23.17L128.82 23.17Q128.88 22.80 128.96 22.56L128.96 22.56L128.96 22.56Q129.04 22.32 129.15 21.99L129.15 21.99L129.15 21.99Q129.25 21.66 129.38 21.36L129.38 21.36L129.38 21.36Q129.50 21.06 129.66 20.74L129.66 20.74L129.66 20.78L129.66 20.78Q130.46 19.09 131.70 17.86L131.70 17.86L131.70 17.86Q132.93 16.63 134.40 15.95L134.40 15.95L134.40 15.95Q135.88 15.28 137.43 14.97L137.43 14.97L137.43 14.97Q138.97 14.66 140.70 14.66L140.70 14.66L140.70 14.66Q142.88 14.66 144.63 15.09L144.63 15.09L144.63 15.09Q146.39 15.52 147.55 16.24L147.55 16.24L147.55 16.24Q148.71 16.96 149.54 17.99L149.54 17.99L149.54 17.99Q150.36 19.02 150.79 20.11L150.79 20.11L150.79 20.11Q151.21 21.20 151.38 22.46L151.38 22.46L151.38 23.98L151.38 23.98Q151.33 24.22 151.12 24.35L151.12 24.35L151.12 24.35Q150.91 24.49 150.66 24.51L150.66 24.51L150.66 24.51Q150.42 24.54 149.98 24.54L149.98 24.54L142.45 24.54L142.45 23.03L142.45 23.03Q142.37 22.43 141.94 21.94L141.94 21.94L141.94 21.94Q141.52 21.45 140.91 21.45L140.91 21.45L140.91 21.45Q140.36 21.45 139.95 21.67L139.95 21.67L139.95 21.67Q139.54 21.90 139.30 22.28L139.30 22.28L139.30 22.28Q139.06 22.66 138.91 23.16L138.91 23.16L138.91 23.16Q138.76 23.66 138.72 24.21L138.72 24.21L138.72 24.21Q138.67 24.77 138.65 25.34L138.65 25.34L138.65 25.34Q138.62 25.91 138.66 26.42L138.66 26.42L138.66 26.42Q138.66 26.77 138.66 26.93L138.66 26.93L138.66 28.90L138.66 28.90Q138.66 29.34 138.70 29.75L138.70 29.75L138.70 29.75Q138.74 30.16 138.91 30.81L138.91 30.81L138.91 30.81Q139.08 31.46 139.50 31.87L139.50 31.87L139.50 31.87Q139.92 32.27 140.55 32.27L140.55 32.27L140.55 32.27Q141.22 32.27 141.55 31.71L141.55 31.71L141.55 31.71Q141.87 31.15 142.09 30.36L142.09 30.36L142.09 30.36Q142.31 29.57 142.59 29.29L142.59 29.29L142.59 29.29Q143.30 29.29 144.70 29.30L144.70 29.30L144.70 29.30Q146.11 29.32 146.81 29.32L146.81 29.32L146.81 29.32Q147.30 29.32 148.27 29.30L148.27 29.30L148.27 29.30Q149.24 29.29 149.73 29.29L149.73 29.29L151.03 29.29L151.03 29.29Q151.61 29.29 151.66 29.99L151.66 29.99L151.66 30.66L151.66 30.66Q151.28 34.15 149.08 36.30L149.08 36.30L149.08 36.30Q146.88 38.44 143.58 39.02L143.58 39.02L143.58 39.13L143.58 39.13Q142.40 39.38 140.63 39.38ZM152.05 21.73L152.05 21.73L152.05 15.40L172.51 15.40L172.51 15.40Q172.79 15.45 172.86 15.62L172.86 15.62L172.86 15.62Q172.93 15.79 172.93 16.10L172.93 16.10L172.93 21.73L172.93 21.73Q172.90 22.15 172.44 22.15L172.44 22.15L167.45 22.15L167.45 38.32L167.45 38.32Q167.45 38.34 167.43 38.41L167.43 38.41L167.43 38.41Q167.41 38.48 167.41 38.50L167.41 38.50L167.41 38.50Q167.41 38.51 167.40 38.57L167.40 38.57L167.40 38.57Q167.38 38.62 167.36 38.64L167.36 38.64L167.36 38.64Q167.34 38.65 167.33 38.70L167.33 38.70L167.33 38.70Q167.31 38.74 167.28 38.75L167.28 38.75L167.28 38.75Q167.26 38.76 167.21 38.79L167.21 38.79L167.21 38.79Q167.17 38.81 167.12 38.83L167.12 38.83L167.12 38.83Q167.08 38.85 167.02 38.86L167.02 38.86L167.02 38.86Q166.96 38.87 166.89 38.88L166.89 38.88L165.76 38.88L165.76 38.88Q163.51 38.88 163.51 38.74L163.51 38.74L163.51 38.74Q163.37 38.74 163.09 38.76L163.09 38.76L163.09 38.76Q162.81 38.78 162.67 38.78L162.67 38.78L161.26 38.78L161.26 38.78Q160.86 38.78 160.11 38.79L160.11 38.79L160.11 38.79Q159.36 38.81 158.94 38.81L158.94 38.81L157.96 38.81L157.25 38.32L157.25 34.52L157.25 34.52Q157.27 33.50 157.40 30.16L157.40 30.16L157.40 30.16Q157.54 26.82 157.54 24.89L157.54 24.89L157.54 24.43L157.54 24.43Q157.54 24.29 157.55 23.99L157.55 23.99L157.55 23.99Q157.57 23.70 157.57 23.55L157.57 23.55L157.57 23.55Q157.57 23.40 157.55 22.91L157.55 22.91L157.55 22.91Q157.54 22.43 157.54 22.29L157.54 22.29L153.14 22.29L153.14 22.29Q152.75 22.29 152.40 22.16L152.40 22.16L152.40 22.16Q152.05 22.03 152.05 21.73ZM173.21 26.30L173.21 26.30L173.21 24.36L173.21 24.36Q173.39 21.90 174.29 19.87L174.29 19.87L174.29 19.87Q175.18 17.84 176.56 16.45L176.56 16.45L176.56 16.45Q177.94 15.06 179.75 14.11L179.75 14.11L179.75 14.11Q181.56 13.15 183.54 12.71L183.54 12.71L183.54 12.71Q185.52 12.27 187.63 12.27L187.63 12.27L187.63 12.27Q188.79 12.27 190.05 12.46L190.05 12.46L190.05 12.46Q191.30 12.66 192.71 13.08L192.71 13.08L192.71 13.08Q194.12 13.50 195.41 14.32L195.41 14.32L195.41 14.32Q196.70 15.13 197.54 16.24L197.54 16.24L197.54 16.24Q199.28 18.37 200.07 20.70L200.07 20.70L200.07 20.70Q200.85 23.03 200.85 25.88L200.85 25.88L200.85 25.88Q200.90 31.82 198.25 35.44L198.25 35.44L197.47 36.49L197.47 36.49Q196.45 37.90 194.55 38.84L194.55 38.84L194.55 38.84Q192.66 39.78 190.76 40.14L190.76 40.14L190.76 40.14Q188.86 40.50 186.93 40.50L186.93 40.50L186.93 40.50Q184.66 40.50 182.74 40.04L182.74 40.04L182.74 40.04Q180.83 39.59 179.44 38.81L179.44 38.81L179.44 38.81Q178.05 38.04 176.96 36.93L176.96 36.93L176.96 36.93Q175.87 35.82 175.17 34.59L175.17 34.59L175.17 34.59Q174.48 33.36 174.03 31.92L174.03 31.92L174.03 31.92Q173.58 30.48 173.40 29.11L173.40 29.11L173.40 29.11Q173.21 27.74 173.21 26.30ZM187.21 19.34L187.21 19.34L187.21 19.34Q186.49 19.34 185.92 19.67L185.92 19.67L185.92 19.67Q185.34 20.00 184.98 20.48L184.98 20.48L184.98 20.48Q184.62 20.95 184.36 21.75L184.36 21.75L184.36 21.75Q184.10 22.55 183.97 23.19L183.97 23.19L183.97 23.19Q183.85 23.84 183.78 24.81L183.78 24.81L183.78 24.81Q183.71 25.79 183.70 26.32L183.70 26.32L183.70 26.32Q183.69 26.86 183.69 27.70L183.69 27.70L183.69 27.70Q183.69 28.51 183.75 29.24L183.75 29.24L183.75 29.24Q183.81 29.97 184.02 30.79L184.02 30.79L184.02 30.79Q184.22 31.61 184.54 32.21L184.54 32.21L184.54 32.21Q184.87 32.82 185.44 33.23L185.44 33.23L185.44 33.23Q186.01 33.64 186.75 33.68L186.75 33.68L186.75 33.68Q187.52 33.68 188.12 33.42L188.12 33.42L188.12 33.42Q188.72 33.17 189.12 32.77L189.12 32.77L189.12 32.77Q189.53 32.38 189.81 31.71L189.81 31.71L189.81 31.71Q190.09 31.04 190.24 30.43L190.24 30.43L190.24 30.43Q190.39 29.81 190.47 28.90L190.47 28.90L190.47 28.90Q190.55 27.98 190.56 27.33L190.56 27.33L190.56 27.33Q190.58 26.67 190.58 25.66L190.58 25.66L190.58 25.66Q190.58 24.93 190.54 24.29L190.54 24.29L190.54 24.29Q190.49 23.66 190.39 22.89L190.39 22.89L190.39 22.89Q190.28 22.11 190.04 21.52L190.04 21.52L190.04 21.52Q189.79 20.94 189.44 20.42L189.44 20.42L189.44 20.42Q189.09 19.90 188.52 19.62L188.52 19.62L188.52 19.62Q187.95 19.34 187.21 19.34ZM220.57 15.33L226.58 15.33L226.58 15.33Q226.79 15.40 226.91 15.93L226.91 15.93L226.91 15.93Q227.02 16.47 227.04 17.28L227.04 17.28L227.04 17.28Q227.06 18.09 227.04 18.83L227.04 18.83L227.04 18.83Q227.02 19.56 227.00 20.34L227.00 20.34L227.00 20.34Q226.97 21.11 226.97 21.30L226.97 21.30L226.97 21.30Q226.93 22.01 226.93 23.27L226.93 23.27L226.93 25.14L226.93 25.14Q226.93 26.37 226.97 28.51L226.97 28.51L226.97 28.51Q227.00 30.66 227.00 31.68L227.00 31.68L227.00 38.07L227.00 38.07Q226.93 38.67 226.02 38.67L226.02 38.67L216.18 38.67L216.18 38.67Q215.86 38.60 215.37 37.20L215.37 37.20L215.37 37.20Q215.03 36.26 214.25 34.14L214.25 34.14L214.25 34.14Q213.47 32.01 212.91 30.40L212.91 30.40L212.91 30.40Q212.34 28.79 211.89 27.28L211.89 27.28L211.89 27.18L211.89 27.28L211.89 27.28Q211.83 28.44 211.78 30.74L211.78 30.74L211.78 30.74Q211.73 33.03 211.68 34.17L211.68 34.17L211.68 37.76L211.68 37.76Q211.68 38.29 211.55 38.49L211.55 38.49L211.55 38.49Q211.43 38.69 210.90 38.81L210.90 38.81L203.66 38.81L202.89 38.04L202.89 38.04Q202.97 35.12 203.03 28.90L203.03 28.90L203.03 28.90Q203.08 22.68 203.17 19.69L203.17 19.69L203.17 15.89L203.17 15.89Q203.34 15.26 203.59 15.26L203.59 15.26L203.59 15.33L203.59 15.33Q204.79 15.33 207.34 15.26L207.34 15.26L207.34 15.26Q209.90 15.19 211.18 15.19L211.18 15.19L214.14 15.19L214.14 15.19Q214.15 15.19 214.19 15.21L214.19 15.21L214.19 15.21Q214.51 15.33 214.54 15.49L214.54 15.49L214.56 15.61L214.56 15.61Q215.19 17.31 215.84 19.14L215.84 19.14L215.84 19.14Q216.49 20.97 217.39 23.56L217.39 23.56L217.39 23.56Q218.29 26.16 218.64 27.14L218.64 27.14L218.64 24.54L218.64 24.54Q218.99 18.35 218.99 15.75L218.99 15.75L218.99 15.75Q218.99 15.47 219.38 15.40L219.38 15.40L219.38 15.40Q219.76 15.33 220.57 15.33L220.57 15.33ZM255.76 30.09L255.76 30.09L255.76 30.09Q255.46 32.73 254.37 34.76L254.37 34.76L254.37 34.76Q253.28 36.79 251.58 38.07L251.58 38.07L251.58 38.07Q249.87 39.34 247.70 39.99L247.70 39.99L247.70 39.99Q245.53 40.64 242.96 40.64L242.96 40.64L242.96 40.64Q240.57 40.64 238.61 40.12L238.61 40.12L238.61 40.12Q236.64 39.60 235.28 38.74L235.28 38.74L235.28 38.74Q233.93 37.88 232.89 36.64L232.89 36.64L232.89 36.64Q231.86 35.40 231.24 34.09L231.24 34.09L231.24 34.09Q230.63 32.78 230.25 31.23L230.25 31.23L230.25 31.23Q229.87 29.67 229.74 28.33L229.74 28.33L229.74 28.33Q229.61 26.98 229.61 25.52L229.61 25.52L229.61 23.98L229.61 23.98Q229.78 21.41 230.80 19.36L230.80 19.36L230.80 19.36Q231.82 17.31 233.28 16.06L233.28 16.06L233.28 16.06Q234.74 14.80 236.62 13.97L236.62 13.97L236.62 13.97Q238.50 13.13 240.28 12.81L240.28 12.81L240.28 12.81Q242.05 12.48 243.81 12.48L243.81 12.48L243.81 12.48Q246.64 12.48 248.81 13.16L248.81 13.16L248.81 13.16Q250.98 13.83 252.35 15.06L252.35 15.06L252.35 15.06Q253.72 16.29 254.50 17.89L254.50 17.89L254.50 17.89Q255.27 19.48 255.48 21.45L255.48 21.45L255.48 23.13L255.48 23.13Q255.48 23.70 251.61 23.70L251.61 23.70L251.61 23.70Q250.70 23.70 249.07 23.66L249.07 23.66L249.07 23.66Q247.45 23.63 246.94 23.63L246.94 23.63L246.94 23.63Q246.85 23.63 246.67 23.64L246.67 23.64L246.67 23.64Q246.50 23.66 246.41 23.66L246.41 23.66L246.41 23.66Q245.95 23.66 245.72 23.28L245.72 23.28L245.72 23.28Q245.48 22.90 245.40 22.36L245.40 22.36L245.40 22.36Q245.32 21.81 245.21 21.27L245.21 21.27L245.21 21.27Q245.09 20.72 244.73 20.35L244.73 20.35L244.73 20.35Q244.37 19.97 243.74 19.97L243.74 19.97L243.74 19.97Q243.11 19.97 242.63 20.18L242.63 20.18L242.63 20.18Q242.16 20.39 241.88 20.84L241.88 20.84L241.88 20.84Q241.59 21.29 241.41 21.74L241.41 21.74L241.41 21.74Q241.22 22.20 241.15 22.93L241.15 22.93L241.15 22.93Q241.07 23.66 241.04 24.16L241.04 24.16L241.04 24.16Q241.01 24.66 241.00 25.50L241.00 25.50L241.00 25.50Q240.98 26.33 240.96 26.72L240.96 26.72L240.96 26.72Q240.96 26.93 240.93 27.49L240.93 27.49L240.93 27.49Q240.89 28.05 240.89 28.41L240.89 28.41L240.89 28.41Q240.89 32.78 243.21 32.91L243.21 32.91L243.21 32.91Q243.84 32.91 244.25 32.45L244.25 32.45L244.25 32.45Q244.65 31.99 244.80 31.43L244.80 31.43L244.80 31.43Q244.95 30.87 245.14 30.24L245.14 30.24L245.14 30.24Q245.34 29.62 245.57 29.39L245.57 29.39L255.13 29.39L255.13 29.39Q255.71 29.44 255.76 30.09ZM256.61 27.84L256.61 26.79L256.57 26.40L256.57 26.40Q256.90 23.54 257.20 22.41L257.20 22.41L257.20 22.41Q257.89 19.78 259.66 18L259.66 18L260.09 17.58L260.09 17.58Q260.93 16.59 262.65 15.89L262.65 15.89L263.32 15.89L263.32 15.89Q265.04 15.17 268.98 14.55L268.98 14.55L268.98 14.55Q269.96 14.55 271.05 14.70L271.05 14.70L271.05 14.70Q272.13 14.85 273.45 15.20L273.45 15.20L273.45 15.20Q274.76 15.54 275.99 16.29L275.99 16.29L275.99 16.29Q277.21 17.03 278.02 18.07L278.02 18.07L278.02 18.56L278.02 18.56Q280.90 22.17 280.90 26.65L280.90 26.65L280.90 26.65Q280.90 31.69 278.58 34.88L278.58 34.88L277.88 35.75L277.88 35.75Q277.07 36.76 275.86 37.48L275.86 37.48L275.86 37.48Q274.66 38.20 273.30 38.58L273.30 38.58L273.30 38.58Q271.95 38.95 270.71 39.11L270.71 39.11L270.71 39.11Q269.47 39.27 268.24 39.27L268.24 39.27L268.24 39.27Q266.43 39.27 264.79 38.84L264.79 38.84L264.79 38.84Q263.14 38.41 261.71 37.49L261.71 37.49L261.71 37.49Q260.28 36.58 259.19 35.24L259.19 35.24L259.19 35.24Q258.10 33.91 257.42 32.02L257.42 32.02L257.42 32.02Q256.75 30.13 256.61 27.84L256.61 27.84ZM266.27 26.16L266.27 26.93L266.27 26.93Q266.27 33.12 268.63 33.12L268.63 33.12L268.63 33.12Q269.28 33.12 269.76 32.87L269.76 32.87L269.76 32.87Q270.25 32.63 270.54 32.12L270.54 32.12L270.54 32.12Q270.84 31.61 271.04 31.08L271.04 31.08L271.04 31.08Q271.23 30.55 271.31 29.76L271.31 29.76L271.31 29.76Q271.39 28.97 271.42 28.37L271.42 28.37L271.42 28.37Q271.44 27.77 271.44 26.93L271.44 26.93L271.44 26.30L271.44 26.30Q271.44 25.38 271.34 24.54L271.34 24.54L271.34 24.54Q271.23 23.70 270.98 22.84L270.98 22.84L270.98 22.84Q270.72 21.99 270.19 21.47L270.19 21.47L270.19 21.47Q269.67 20.95 268.91 20.95L268.91 20.95L268.91 20.95Q266.27 20.95 266.27 26.16L266.27 26.16ZM294.43 15.40L296.23 15.40L296.23 15.40Q296.35 15.36 296.62 15.34L296.62 15.34L296.62 15.34Q296.89 15.31 296.96 15.29L296.96 15.29L299.06 26.00L301.80 15.26L314.16 15.26L314.16 15.26Q314.65 15.26 314.65 17.33L314.65 17.33L314.65 38.04L314.65 38.04Q314.61 38.32 314.49 38.50L314.49 38.50L314.49 38.50Q314.37 38.67 314.13 38.73L314.13 38.73L314.13 38.73Q313.89 38.79 313.76 38.80L313.76 38.80L313.76 38.80Q313.63 38.81 313.31 38.81L313.31 38.81L313.31 38.81Q312.21 38.81 309.95 38.85L309.95 38.85L309.95 38.85Q307.69 38.88 306.56 38.88L306.56 38.88L306.56 38.88Q305.68 38.34 305.68 34.84L305.68 34.84L305.68 34.84Q305.68 33.96 305.72 32.55L305.72 32.55L305.72 32.55Q305.75 31.13 305.75 30.45L305.75 30.45L305.75 28.90L305.75 28.90Q305.75 28.78 305.74 28.50L305.74 28.50L305.74 28.50Q305.72 28.23 305.72 28.09L305.72 28.09L305.72 28.09Q305.72 27.49 305.79 26.16L305.79 26.16L305.79 27.49L305.79 27.49Q305.54 28.53 304.84 30.66L304.84 30.66L304.84 30.66Q304.14 32.78 303.89 33.82L303.89 33.82L302.84 38.32L302.84 38.32Q302.55 38.81 301.08 38.81L301.08 38.81L301.08 38.81Q300.36 38.81 299.21 38.78L299.21 38.78L299.21 38.78Q298.05 38.74 297.46 38.74L297.46 38.74L297.46 38.74Q297.28 38.74 296.86 38.76L296.86 38.76L296.86 38.76Q296.44 38.78 296.33 38.78L296.33 38.78L296.33 38.78Q295.77 38.78 295.52 38.64L295.52 38.64L295.52 38.64Q295.28 38.50 295.17 38.07L295.17 38.07L295.17 38.07Q293.52 30.74 292.89 27.70L292.89 27.70L292.25 24.68L292.25 24.68Q292.01 29.79 292.01 35.51L292.01 35.51L292.01 38.60L283.71 38.60L283.71 38.60Q283.71 38.50 283.76 38.14L283.76 38.14L283.76 38.14Q283.82 37.79 283.82 37.76L283.82 37.76L283.82 37.76Q283.68 34.38 283.68 29.43L283.68 29.43L283.68 29.43Q283.68 27.93 283.66 25.44L283.66 25.44L283.66 25.44Q283.64 22.96 283.64 22.01L283.64 22.01L283.64 15.79L283.64 15.79Q283.64 15.56 283.71 15.44L283.71 15.44L283.71 15.44Q283.78 15.33 284.06 15.12L284.06 15.12L285.68 15.12L285.68 15.12Q286.56 15.12 286.95 15.08L286.95 15.08L286.95 15.08Q288.72 15.08 291.26 15.24L291.26 15.24L291.26 15.24Q293.80 15.40 294.43 15.40L294.43 15.40ZM305.79 26.02L305.79 26.05L305.79 26.02ZM329.10 15.40L330.89 15.40L330.89 15.40Q331.01 15.36 331.29 15.34L331.29 15.34L331.29 15.34Q331.56 15.31 331.63 15.29L331.63 15.29L333.72 26.00L336.46 15.26L348.82 15.26L348.82 15.26Q349.31 15.26 349.31 17.33L349.31 17.33L349.31 38.04L349.31 38.04Q349.28 38.32 349.15 38.50L349.15 38.50L349.15 38.50Q349.03 38.67 348.79 38.73L348.79 38.73L348.79 38.73Q348.56 38.79 348.42 38.80L348.42 38.80L348.42 38.80Q348.29 38.81 347.98 38.81L347.98 38.81L347.98 38.81Q346.87 38.81 344.61 38.85L344.61 38.85L344.61 38.85Q342.35 38.88 341.23 38.88L341.23 38.88L341.23 38.88Q340.35 38.34 340.35 34.84L340.35 34.84L340.35 34.84Q340.35 33.96 340.38 32.55L340.38 32.55L340.38 32.55Q340.42 31.13 340.42 30.45L340.42 30.45L340.42 28.90L340.42 28.90Q340.42 28.78 340.40 28.50L340.40 28.50L340.40 28.50Q340.38 28.23 340.38 28.09L340.38 28.09L340.38 28.09Q340.38 27.49 340.45 26.16L340.45 26.16L340.45 27.49L340.45 27.49Q340.21 28.53 339.50 30.66L339.50 30.66L339.50 30.66Q338.80 32.78 338.55 33.82L338.55 33.82L337.50 38.32L337.50 38.32Q337.22 38.81 335.74 38.81L335.74 38.81L335.74 38.81Q335.02 38.81 333.87 38.78L333.87 38.78L333.87 38.78Q332.72 38.74 332.12 38.74L332.12 38.74L332.12 38.74Q331.95 38.74 331.52 38.76L331.52 38.76L331.52 38.76Q331.10 38.78 331.00 38.78L331.00 38.78L331.00 38.78Q330.43 38.78 330.19 38.64L330.19 38.64L330.19 38.64Q329.94 38.50 329.84 38.07L329.84 38.07L329.84 38.07Q328.18 30.74 327.55 27.70L327.55 27.70L326.92 24.68L326.92 24.68Q326.67 29.79 326.67 35.51L326.67 35.51L326.67 38.60L318.38 38.60L318.38 38.60Q318.38 38.50 318.43 38.14L318.43 38.14L318.43 38.14Q318.48 37.79 318.48 37.76L318.48 37.76L318.48 37.76Q318.34 34.38 318.34 29.43L318.34 29.43L318.34 29.43Q318.34 27.93 318.32 25.44L318.32 25.44L318.32 25.44Q318.30 22.96 318.30 22.01L318.30 22.01L318.30 15.79L318.30 15.79Q318.30 15.56 318.38 15.44L318.38 15.44L318.38 15.44Q318.45 15.33 318.73 15.12L318.73 15.12L320.34 15.12L320.34 15.12Q321.22 15.12 321.61 15.08L321.61 15.08L321.61 15.08Q323.38 15.08 325.92 15.24L325.92 15.24L325.92 15.24Q328.46 15.40 329.10 15.40L329.10 15.40ZM340.45 26.02L340.45 26.05L340.45 26.02ZM352.62 19.41L352.62 19.44L352.62 19.44Q352.55 19.09 352.55 17.44L352.55 17.44L352.55 17.44Q352.55 15.54 352.90 15.19L352.90 15.19L362.46 15.19L362.46 29.95L362.46 29.95Q362.46 32.24 363.80 32.24L363.80 32.24L363.80 32.24Q364.36 32.24 364.73 31.74L364.73 31.74L364.73 31.74Q365.10 31.24 365.10 30.55L365.10 30.55L365.10 27.95L365.10 27.95Q365.20 20.25 365.20 20.18L365.20 20.18L365.20 20.18Q365.20 17.12 365.13 15.75L365.13 15.75L365.13 15.75Q365.13 15.26 365.63 15.05L365.63 15.05L375.40 15.05L375.40 17.79L375.40 17.79Q375.17 24.45 375.12 26.37L375.12 26.37L375.12 27.46L375.12 27.46Q375.12 27.67 375.10 28.02L375.10 28.02L375.10 28.02Q375.08 28.37 375.08 28.51L375.08 28.51L375.08 28.51Q375.08 29.11 375.12 29.36L375.12 29.36L375.12 30.73L375.12 30.73Q375.12 33.17 374.63 34.24L374.63 34.24L374.63 34.31L374.63 34.31Q374.06 35.63 373.01 36.59L373.01 36.59L373.01 36.59Q371.95 37.55 370.60 38.08L370.60 38.08L370.60 38.08Q369.25 38.62 367.82 38.86L367.82 38.86L367.82 38.86Q366.40 39.09 364.82 39.09L364.82 39.09L364.82 39.09Q364.32 39.09 364.08 38.99L364.08 38.99L363.66 38.99L363.66 38.99Q363.66 39.16 363.13 39.16L363.13 39.16L363.13 39.20L363.13 39.20Q362.74 39.22 360.88 39.02L360.88 39.02L360.07 39.02L360.07 39.02Q358.96 38.90 357.93 38.53L357.93 38.53L357.93 38.53Q356.91 38.16 355.94 37.49L355.94 37.49L355.94 37.49Q354.97 36.81 354.24 35.88L354.24 35.88L354.24 35.88Q353.51 34.95 353.06 33.61L353.06 33.61L353.06 33.61Q352.60 32.27 352.55 30.69L352.55 30.69L352.55 30.69Q352.56 29.78 352.56 28.16L352.56 28.16L352.56 28.16Q352.55 26.54 352.56 25.22L352.56 25.22L352.56 25.22Q352.58 23.89 352.65 22.64L352.65 22.64L352.65 22.15L352.65 22.15Q352.65 22.06 352.67 21.87L352.67 21.87L352.67 21.87Q352.69 21.67 352.69 21.59L352.69 21.59L352.69 21.59Q352.69 21.32 352.65 20.79L352.65 20.79L352.65 20.79Q352.62 20.27 352.62 20.00L352.62 20.00L352.62 19.41ZM376.42 21.73L376.42 21.73L376.42 15.40L396.88 15.40L396.88 15.40Q397.16 15.45 397.23 15.62L397.23 15.62L397.23 15.62Q397.30 15.79 397.30 16.10L397.30 16.10L397.30 21.73L397.30 21.73Q397.27 22.15 396.81 22.15L396.81 22.15L391.82 22.15L391.82 38.32L391.82 38.32Q391.82 38.34 391.80 38.41L391.80 38.41L391.80 38.41Q391.78 38.48 391.78 38.50L391.78 38.50L391.78 38.50Q391.78 38.51 391.76 38.57L391.76 38.57L391.76 38.57Q391.75 38.62 391.73 38.64L391.73 38.64L391.73 38.64Q391.71 38.65 391.69 38.70L391.69 38.70L391.69 38.70Q391.68 38.74 391.65 38.75L391.65 38.75L391.65 38.75Q391.62 38.76 391.58 38.79L391.58 38.79L391.58 38.79Q391.54 38.81 391.49 38.83L391.49 38.83L391.49 38.83Q391.45 38.85 391.39 38.86L391.39 38.86L391.39 38.86Q391.32 38.87 391.25 38.88L391.25 38.88L390.13 38.88L390.13 38.88Q387.88 38.88 387.88 38.74L387.88 38.74L387.88 38.74Q387.74 38.74 387.46 38.76L387.46 38.76L387.46 38.76Q387.18 38.78 387.04 38.78L387.04 38.78L385.63 38.78L385.63 38.78Q385.22 38.78 384.48 38.79L384.48 38.79L384.48 38.79Q383.73 38.81 383.31 38.81L383.31 38.81L382.32 38.81L381.62 38.32L381.62 34.52L381.62 34.52Q381.64 33.50 381.77 30.16L381.77 30.16L381.77 30.16Q381.90 26.82 381.90 24.89L381.90 24.89L381.90 24.43L381.90 24.43Q381.90 24.29 381.92 23.99L381.92 23.99L381.92 23.99Q381.94 23.70 381.94 23.55L381.94 23.55L381.94 23.55Q381.94 23.40 381.92 22.91L381.92 22.91L381.92 22.91Q381.90 22.43 381.90 22.29L381.90 22.29L377.51 22.29L377.51 22.29Q377.12 22.29 376.77 22.16L376.77 22.16L376.77 22.16Q376.42 22.03 376.42 21.73ZM398.64 38.21L398.64 16.80L398.64 16.80Q398.64 15.75 398.72 15.57L398.72 15.57L398.72 15.57Q398.88 15.33 399.23 15.33L399.23 15.33L399.66 15.33L399.66 15.33Q399.94 15.33 400.04 15.36L400.04 15.36L400.96 15.36L400.96 15.36Q402.73 15.36 406.33 15.28L406.33 15.28L406.33 15.28Q409.92 15.19 411.71 15.19L411.71 15.19L416.39 15.19L416.39 15.19Q416.85 15.24 416.85 15.64L416.85 15.64L416.85 21.52L416.85 21.52Q416.83 21.62 416.79 21.70L416.79 21.70L416.79 21.70Q416.74 21.78 416.72 21.81L416.72 21.81L416.72 21.81Q416.69 21.83 416.55 21.93L416.55 21.93L416.55 21.93Q416.41 22.03 416.36 22.08L416.36 22.08L408.20 22.08L408.20 24.26L408.97 24.26L408.97 24.26Q409.99 24.26 412.08 24.19L412.08 24.19L412.08 24.19Q414.18 24.12 415.30 24.12L415.30 24.12L415.30 24.12Q415.79 24.12 415.97 24.31L415.97 24.31L415.97 24.31Q416.14 24.50 416.14 24.86L416.14 24.86L416.14 24.86Q416.14 24.94 416.11 25.15L416.11 25.15L416.11 25.15Q416.07 25.37 416.07 25.45L416.07 25.45L416.07 26.12L416.07 26.12Q416.07 26.19 416.09 26.41L416.09 26.41L416.09 26.41Q416.11 26.63 416.11 26.79L416.11 26.79L416.11 27.28L416.11 27.28Q416.11 27.67 416.14 28.05L416.14 28.05L416.14 28.05Q416.18 28.44 416.18 28.72L416.18 28.72L416.18 29.18L416.18 29.18Q416.09 29.39 416.04 29.46L416.04 29.46L416.04 29.46Q415.99 29.53 415.86 29.53L415.86 29.53L415.86 29.50L415.86 29.50Q415.21 29.50 413.62 29.58L413.62 29.58L413.62 29.58Q412.03 29.67 411.08 29.67L411.08 29.67L408.27 29.67L408.27 31.92L408.27 31.92Q408.41 31.92 408.69 31.94L408.69 31.94L408.69 31.94Q408.97 31.96 409.11 31.96L409.11 31.96L409.11 31.96Q409.90 31.96 411.45 31.90L411.45 31.90L411.45 31.90Q413.00 31.85 413.68 31.85L413.68 31.85L415.93 31.85L415.93 31.85Q416.85 31.85 417.09 32.06L417.09 32.06L417.09 32.06Q417.18 32.17 417.23 32.27L417.23 32.27L417.23 37.90L417.23 37.90Q417.23 38.27 417.09 38.46L417.09 38.46L417.09 38.46Q416.95 38.65 416.57 38.67L416.57 38.67L399.16 38.67L398.64 38.21Z" transform="rotate(0 208.9649993777275 26.454999923706055)"></path><defs id="SvgjsDefs1026"></defs></svg></g><g id="SvgjsG1029" transform="rotate(0 208.25 248.0078125)"><svg xmlns="http://www.w3.org/2000/svg" xmlns:xlink="http://www.w3.org/1999/xlink" width="222.71875" viewBox="-0.18000000715255737 8.010000228881836 222.71998596191406 15.280000686645508" overflow="visible" style="overflow: visible;" transform="" version="1.1" xmlns:svgjs="http://svgjs.com/svgjs" preserveAspectRatio="none" height="15.265625" x="96.890625" y="240.375" fill="#000000" stroke="none"><path stroke="none" fill="#FFFFFF" d="M6.30 14.99L6.30 14.99Q6.08 14.89 5.76 14.89L5.76 14.89L5.76 14.89Q4.95 14.89 4.14 15.21L4.14 15.21L4.14 15.21Q3.33 15.53 3.33 16.04L3.33 16.04L3.33 16.04Q3.33 16.40 3.65 16.61L3.65 16.61L3.65 16.61Q3.98 16.83 4.68 17.10L4.68 17.10L4.68 17.10Q5.44 17.41 5.90 17.68L5.90 17.68L5.90 17.68Q6.37 17.95 6.72 18.46L6.72 18.46L6.72 18.46Q7.07 18.97 7.07 19.76L7.07 19.76L7.07 19.76Q7.07 21.06 6.00 21.75L6.00 21.75L6.00 21.75Q4.93 22.45 3.13 22.45L3.13 22.45L3.13 22.45Q2.25 22.45 1.49 22.18L1.49 22.18L1.49 22.18Q0.74 21.91 0.30 21.48L0.30 21.48L0.30 21.48Q-0.14 21.06-0.18 20.65L-0.18 20.65L-0.18 20.65Q-0.18 20.21 0.20 19.94L0.20 19.94L0.20 19.94Q0.58 19.66 1.26 19.57L1.26 19.57L1.26 19.57Q1.28 19.93 1.64 20.24L1.64 20.24L1.64 20.24Q2.00 20.56 2.49 20.75L2.49 20.75L2.49 20.75Q2.99 20.93 3.35 20.93L3.35 20.93L3.35 20.93Q3.96 20.93 4.46 20.60L4.46 20.60L4.46 20.60Q4.97 20.27 4.97 19.82L4.97 19.82L4.97 19.82Q4.97 18.99 3.37 18.50L3.37 18.50L3.37 18.50Q2.34 18.20 1.79 17.53L1.79 17.53L1.79 17.53Q1.24 16.87 1.24 16.13L1.24 16.13L1.24 16.13Q1.24 14.67 2.57 14.03L2.57 14.03L2.57 14.03Q3.89 13.39 5.94 13.39L5.94 13.39L5.94 13.39Q7.09 13.39 7.72 13.66L7.72 13.66L7.72 13.66Q8.35 13.93 8.35 14.60L8.35 14.60L8.35 14.60Q8.35 15.05 8.02 15.39L8.02 15.39L8.02 15.39Q7.69 15.73 7.07 15.73L7.07 15.73L7.07 15.73Q6.53 15.73 6.38 15.65L6.38 15.65L6.38 15.65Q6.23 15.57 6.21 15.37L6.21 15.37L6.21 15.37Q6.21 15.19 6.30 14.99L6.30 14.99ZM13.10 22.34L13.10 22.34Q11.51 22.34 10.63 21.26L10.63 21.26L10.63 21.26Q9.75 20.18 9.75 18.50L9.75 18.50L9.75 18.50Q9.75 17.10 10.42 15.86L10.42 15.86L10.42 15.86Q11.10 14.62 12.27 13.86L12.27 13.86L12.27 13.86Q13.44 13.10 14.84 13.10L14.84 13.10L14.84 13.10Q16.23 13.10 17.12 14.01L17.12 14.01L17.12 14.01Q18.01 14.92 18.01 16.69L18.01 16.69L18.01 16.69Q18.01 17.93 17.33 19.26L17.33 19.26L17.33 19.26Q16.64 20.59 15.50 21.46L15.50 21.46L15.50 21.46Q14.36 22.34 13.10 22.34L13.10 22.34ZM13.37 20.90L13.37 20.90Q13.94 20.90 14.53 20.18L14.53 20.18L14.53 20.18Q15.11 19.46 15.49 18.36L15.49 18.36L15.49 18.36Q15.87 17.26 15.87 16.22L15.87 16.22L15.87 16.22Q15.87 14.62 14.54 14.62L14.54 14.62L14.54 14.62Q13.80 14.62 13.19 15.32L13.19 15.32L13.19 15.32Q12.57 16.02 12.21 17.05L12.21 17.05L12.21 17.05Q11.85 18.09 11.85 18.99L11.85 18.99L11.85 18.99Q11.85 19.51 12.09 19.95L12.09 19.95L12.09 19.95Q12.32 20.39 12.67 20.65L12.67 20.65L12.67 20.65Q13.02 20.90 13.37 20.90L13.37 20.90ZM27.63 19.84L27.63 19.84Q27.42 20.41 26.79 21.00L26.79 21.00L26.79 21.00Q26.16 21.58 25.18 21.96L25.18 21.96L25.18 21.96Q24.21 22.34 23.06 22.34L23.06 22.34L23.06 22.34Q21.30 22.34 20.45 21.61L20.45 21.61L20.45 21.61Q19.60 20.88 19.60 19.71L19.60 19.71L19.60 19.71Q19.60 18.02 20.47 16.57L20.47 16.57L20.47 16.57Q21.33 15.12 22.79 14.27L22.79 14.27L22.79 14.27Q24.25 13.43 25.90 13.43L25.90 13.43L25.90 13.43Q26.93 13.43 27.61 14.03L27.61 14.03L27.61 14.03Q28.28 14.63 28.28 15.66L28.28 15.66L28.28 15.66Q28.28 16.06 27.96 16.32L27.96 16.32L27.96 16.32Q27.63 16.58 27.09 16.58L27.09 16.58L27.09 16.58Q26.66 16.58 26.51 16.38L26.51 16.38L26.51 16.38Q26.35 16.18 26.35 15.86L26.35 15.86L26.37 15.44L26.37 15.44Q26.37 15.23 26.14 15.09L26.14 15.09L26.14 15.09Q25.90 14.96 25.63 14.96L25.63 14.96L25.63 14.96Q25.08 14.96 24.13 15.62L24.13 15.62L24.13 15.62Q23.19 16.29 22.48 17.38L22.48 17.38L22.48 17.38Q21.76 18.47 21.76 19.71L21.76 19.71L21.76 19.71Q21.76 20.21 22.16 20.48L22.16 20.48L22.16 20.48Q22.56 20.75 23.33 20.75L23.33 20.75L23.33 20.75Q23.82 20.75 24.45 20.56L24.45 20.56L24.45 20.56Q25.08 20.36 25.24 20.05L25.24 20.05L25.24 20.05Q25.85 18.94 26.35 18.94L26.35 18.94L26.35 18.94Q27.09 18.94 27.35 19.21L27.35 19.21L27.35 19.21Q27.61 19.49 27.63 19.84L27.63 19.84ZM31.84 11.27L31.84 11.27Q31.84 10.71 32.19 10.28L32.19 10.28L32.19 10.28Q32.54 9.85 33.17 9.85L33.17 9.85L33.17 9.85Q33.83 9.85 34.33 10.26L34.33 10.26L34.33 10.26Q34.82 10.67 34.82 11.20L34.82 11.20L34.82 11.20Q34.82 11.72 34.32 12.10L34.32 12.10L34.32 12.10Q33.82 12.47 33.15 12.47L33.15 12.47L33.15 12.47Q32.50 12.47 32.17 12.14L32.17 12.14L32.17 12.14Q31.84 11.81 31.84 11.27L31.84 11.27ZM33.73 14.45L33.73 14.45Q32.77 18.34 32.27 20.30L32.27 20.30L32.27 20.30Q32.20 20.59 32.20 20.93L32.20 20.93L32.21 21.44L32.21 21.44Q32.21 21.74 32.03 21.87L32.03 21.87L32.03 21.87Q31.84 22.00 31.22 22.01L31.22 22.01L31.22 22.01Q30.63 22.01 30.32 21.89L30.32 21.89L30.32 21.89Q30.02 21.76 30.02 21.35L30.02 21.35L30.02 21.35Q30.02 21.15 30.48 19.24L30.48 19.24L30.48 19.24Q30.94 17.33 31.73 14.27L31.73 14.27L31.31 13.73L31.31 13.73Q31.26 13.68 31.26 13.61L31.26 13.61L31.26 13.61Q31.26 13.43 31.66 13.31L31.66 13.31L31.66 13.31Q32.05 13.19 32.75 13.19L32.75 13.19L32.75 13.19Q33.37 13.19 33.54 13.54L33.54 13.54L33.54 13.54Q33.71 13.90 33.73 14.45L33.73 14.45ZM42.61 21.02L42.61 21.02Q42.65 21.49 42.74 21.87L42.74 21.87L42.74 21.87Q42.70 21.98 42.42 22.09L42.42 22.09L42.42 22.09Q42.14 22.19 41.94 22.19L41.94 22.19L41.94 22.19Q41.30 22.19 41.02 22.01L41.02 22.01L41.02 22.01Q40.74 21.82 40.74 21.44L40.74 21.44L40.74 21.44Q40.74 21.08 40.81 20.72L40.81 20.72L40.81 20.72Q40.41 21.26 39.65 21.61L39.65 21.61L39.65 21.61Q38.88 21.96 38.42 21.96L38.42 21.96L38.42 21.96Q37.21 21.96 36.41 21.26L36.41 21.26L36.41 21.26Q35.61 20.56 35.61 19.01L35.61 19.01L35.61 19.01Q35.61 17.55 36.30 16.26L36.30 16.26L36.30 16.26Q36.99 14.98 38.22 14.19L38.22 14.19L38.22 14.19Q39.44 13.41 40.94 13.41L40.94 13.41L40.94 13.41Q41.22 13.41 41.69 13.56L41.69 13.56L41.69 13.56Q42.16 13.72 42.64 14.09L42.64 14.09L42.64 14.09Q43.11 14.45 43.44 15.03L43.44 15.03L43.44 15.03Q43.58 15.03 43.78 15.17L43.78 15.17L43.78 15.17Q43.98 15.32 43.98 15.46L43.98 15.46L43.98 15.46Q43.98 15.62 43.92 15.79L43.92 15.79L42.61 21.02ZM41.80 15.98L41.80 15.98Q41.69 15.59 41.38 15.32L41.38 15.32L41.38 15.32Q41.06 15.05 40.81 15.05L40.81 15.05L40.81 15.05Q39.98 15.05 39.25 15.63L39.25 15.63L39.25 15.63Q38.52 16.22 38.07 17.08L38.07 17.08L38.07 17.08Q37.62 17.95 37.62 18.72L37.62 18.72L37.62 18.72Q37.62 19.48 37.80 19.96L37.80 19.96L37.80 19.96Q37.98 20.45 38.51 20.45L38.51 20.45L38.51 20.45Q38.96 20.45 39.54 20.18L39.54 20.18L39.54 20.18Q40.13 19.91 40.59 19.45L40.59 19.45L40.59 19.45Q41.04 18.99 41.19 18.49L41.19 18.49L41.80 15.98ZM50.86 9.05L50.11 12.17L50.11 12.17Q48.07 20.72 47.71 21.94L47.71 21.94L47.71 21.94Q47.68 22.05 47.35 22.22L47.35 22.22L47.35 22.22Q47.01 22.39 46.89 22.39L46.89 22.39L46.89 22.39Q46.38 22.39 45.91 22.14L45.91 22.14L45.91 22.14Q45.45 21.89 45.41 21.33L45.41 21.33L45.41 21.33Q45.43 21.29 45.59 20.95L45.59 20.95L45.59 20.95Q45.75 20.61 45.91 19.98L45.91 19.98L45.91 19.98Q46.33 18.43 46.86 16.31L46.86 16.31L46.86 16.31Q47.39 14.18 47.57 13.46L47.57 13.46L48.42 10.03L48.42 10.03Q48.40 9.88 48.40 8.53L48.40 8.53L48.40 8.53Q48.45 8.30 48.80 8.15L48.80 8.15L48.80 8.15Q49.15 8.01 49.44 8.01L49.44 8.01L49.44 8.01Q49.89 8.01 50.37 8.32L50.37 8.32L50.37 8.32Q50.85 8.62 50.86 9.05L50.86 9.05ZM62.08 15.88L60.44 22.57L60.44 22.57Q60.30 22.86 59.98 23.08L59.98 23.08L59.98 23.08Q59.67 23.29 59.31 23.29L59.31 23.29L59.31 23.29Q58.98 23.29 58.65 23.05L58.65 23.05L58.65 23.05Q58.32 22.81 58.32 22.41L58.32 22.41L58.32 22.30L59.85 16.06L58.17 16.20L58.17 16.20Q57.62 16.20 57.62 15.64L57.62 15.64L57.62 15.64Q57.62 15.19 57.94 14.74L57.94 14.74L57.94 14.74Q57.99 14.67 60.30 14.42L60.30 14.42L60.62 12.92L60.62 12.92Q61.05 11.05 62.00 10.09L62.00 10.09L62.00 10.09Q62.94 9.13 64.67 9.13L64.67 9.13L64.67 9.13Q65.50 9.13 66.11 9.49L66.11 9.49L66.11 9.49Q66.72 9.85 67.03 10.40L67.03 10.40L67.03 10.40Q67.34 10.96 67.34 11.54L67.34 11.54L67.34 11.54Q67.34 11.99 67.13 12.26L67.13 12.26L67.13 12.26Q66.92 12.53 66.27 12.53L66.27 12.53L66.27 12.53Q66.04 12.53 65.94 12.38L65.94 12.38L65.94 12.38Q65.84 12.24 65.73 11.90L65.73 11.90L65.73 11.90Q65.61 11.45 65.39 11.20L65.39 11.20L65.39 11.20Q65.18 10.94 64.64 10.94L64.64 10.94L64.64 10.94Q64.02 10.94 63.60 11.28L63.60 11.28L63.60 11.28Q63.18 11.61 63.05 12.08L63.05 12.08L62.49 14.20L63.59 14.09L63.59 14.09Q64.31 14.02 64.37 14.02L64.37 14.02L64.37 14.02Q65.05 14.02 65.05 14.81L65.05 14.81L65.05 14.81Q65.05 15.12 64.79 15.36L64.79 15.36L64.79 15.36Q64.53 15.61 64.22 15.66L64.22 15.66L62.08 15.88ZM68.62 11.27L68.62 11.27Q68.62 10.71 68.98 10.28L68.98 10.28L68.98 10.28Q69.33 9.85 69.96 9.85L69.96 9.85L69.96 9.85Q70.62 9.85 71.12 10.26L71.12 10.26L71.12 10.26Q71.61 10.67 71.61 11.20L71.61 11.20L71.61 11.20Q71.61 11.72 71.11 12.10L71.11 12.10L71.11 12.10Q70.60 12.47 69.94 12.47L69.94 12.47L69.94 12.47Q69.29 12.47 68.96 12.14L68.96 12.14L68.96 12.14Q68.62 11.81 68.62 11.27L68.62 11.27ZM70.51 14.45L70.51 14.45Q69.56 18.34 69.06 20.30L69.06 20.30L69.06 20.30Q68.98 20.59 68.98 20.93L68.98 20.93L69.00 21.44L69.00 21.44Q69.00 21.74 68.81 21.87L68.81 21.87L68.81 21.87Q68.62 22.00 68.01 22.01L68.01 22.01L68.01 22.01Q67.42 22.01 67.11 21.89L67.11 21.89L67.11 21.89Q66.81 21.76 66.81 21.35L66.81 21.35L66.81 21.35Q66.81 21.15 67.27 19.24L67.27 19.24L67.27 19.24Q67.72 17.33 68.52 14.27L68.52 14.27L68.10 13.73L68.10 13.73Q68.05 13.68 68.05 13.61L68.05 13.61L68.05 13.61Q68.05 13.43 68.44 13.31L68.44 13.31L68.44 13.31Q68.84 13.19 69.54 13.19L69.54 13.19L69.54 13.19Q70.15 13.19 70.33 13.54L70.33 13.54L70.33 13.54Q70.50 13.90 70.51 14.45L70.51 14.45ZM74.61 21.28L74.61 21.28Q74.59 21.38 74.53 21.70L74.53 21.70L74.53 21.70Q74.47 22.01 74.22 22.14L74.22 22.14L74.22 22.14Q73.98 22.27 73.46 22.27L73.46 22.27L73.46 22.27Q72.86 22.27 72.59 22.14L72.59 22.14L72.59 22.14Q72.32 22.01 72.32 21.60L72.32 21.60L73.19 18.16L73.19 18.16Q73.91 15.19 74.14 14.38L74.14 14.38L73.69 13.84L73.69 13.84Q73.64 13.79 73.64 13.72L73.64 13.72L73.64 13.72Q73.64 13.54 74.03 13.42L74.03 13.42L74.03 13.42Q74.43 13.30 75.13 13.30L75.13 13.30L75.13 13.30Q75.76 13.30 75.98 13.65L75.98 13.65L75.98 13.65Q76.19 14.00 76.25 14.56L76.25 14.56L76.12 15.03L76.12 15.03Q76.70 14.33 77.46 13.87L77.46 13.87L77.46 13.87Q78.23 13.41 78.82 13.41L78.82 13.41L78.82 13.41Q79.60 13.41 80.03 13.68L80.03 13.68L80.03 13.68Q80.46 13.95 80.46 14.38L80.46 14.38L80.46 14.38Q80.46 14.76 80.20 15.16L80.20 15.16L80.20 15.16Q79.94 15.57 79.54 15.85L79.54 15.85L79.54 15.85Q79.15 16.13 78.77 16.16L78.77 16.16L78.77 16.16Q78.41 16.16 78.28 16.07L78.28 16.07L78.28 16.07Q78.16 15.98 78.16 15.80L78.16 15.80L78.26 15.21L78.26 15.21Q76.82 15.61 75.65 17.12L75.65 17.12L74.61 21.28ZM86.84 14.99L86.84 14.99Q86.63 14.89 86.30 14.89L86.30 14.89L86.30 14.89Q85.49 14.89 84.68 15.21L84.68 15.21L84.68 15.21Q83.87 15.53 83.87 16.04L83.87 16.04L83.87 16.04Q83.87 16.40 84.20 16.61L84.20 16.61L84.20 16.61Q84.52 16.83 85.22 17.10L85.22 17.10L85.22 17.10Q85.98 17.41 86.45 17.68L86.45 17.68L86.45 17.68Q86.91 17.95 87.27 18.46L87.27 18.46L87.27 18.46Q87.62 18.97 87.62 19.76L87.62 19.76L87.62 19.76Q87.62 21.06 86.55 21.75L86.55 21.75L86.55 21.75Q85.47 22.45 83.67 22.45L83.67 22.45L83.67 22.45Q82.79 22.45 82.04 22.18L82.04 22.18L82.04 22.18Q81.28 21.91 80.84 21.48L80.84 21.48L80.84 21.48Q80.40 21.06 80.36 20.65L80.36 20.65L80.36 20.65Q80.36 20.21 80.74 19.94L80.74 19.94L80.74 19.94Q81.12 19.66 81.80 19.57L81.80 19.57L81.80 19.57Q81.82 19.93 82.18 20.24L82.18 20.24L82.18 20.24Q82.54 20.56 83.04 20.75L83.04 20.75L83.04 20.75Q83.53 20.93 83.89 20.93L83.89 20.93L83.89 20.93Q84.50 20.93 85.01 20.60L85.01 20.60L85.01 20.60Q85.51 20.27 85.51 19.82L85.51 19.82L85.51 19.82Q85.51 18.99 83.91 18.50L83.91 18.50L83.91 18.50Q82.88 18.20 82.33 17.53L82.33 17.53L82.33 17.53Q81.78 16.87 81.78 16.13L81.78 16.13L81.78 16.13Q81.78 14.67 83.11 14.03L83.11 14.03L83.11 14.03Q84.43 13.39 86.48 13.39L86.48 13.39L86.48 13.39Q87.63 13.39 88.26 13.66L88.26 13.66L88.26 13.66Q88.89 13.93 88.89 14.60L88.89 14.60L88.89 14.60Q88.89 15.05 88.56 15.39L88.56 15.39L88.56 15.39Q88.23 15.73 87.62 15.73L87.62 15.73L87.62 15.73Q87.08 15.73 86.92 15.65L86.92 15.65L86.92 15.65Q86.77 15.57 86.75 15.37L86.75 15.37L86.75 15.37Q86.75 15.19 86.84 14.99L86.84 14.99ZM93.96 15.44L92.83 19.98L92.83 19.98Q92.83 20.39 93.04 20.64L93.04 20.64L93.04 20.64Q93.26 20.88 93.66 20.88L93.66 20.88L93.66 20.88Q94.20 20.88 94.55 20.57L94.55 20.57L94.55 20.57Q94.90 20.25 95.29 19.67L95.29 19.67L95.29 19.67Q95.58 19.26 95.76 19.08L95.76 19.08L95.76 19.08Q95.94 18.90 96.18 18.90L96.18 18.90L96.18 18.90Q96.64 18.90 96.84 19.02L96.84 19.02L96.84 19.02Q97.04 19.13 97.04 19.49L97.04 19.49L97.04 19.49Q97.04 19.66 97.00 19.88L97.00 19.88L97.00 19.88Q96.97 20.11 96.91 20.21L96.91 20.21L96.91 20.21Q96.48 21.13 95.50 21.80L95.50 21.80L95.50 21.80Q94.52 22.46 93.28 22.46L93.28 22.46L93.28 22.46Q92.04 22.46 91.41 21.86L91.41 21.86L91.41 21.86Q90.78 21.26 90.78 20.14L90.78 20.14L90.78 20.14Q90.78 19.98 90.94 19.30L90.94 19.30L90.94 19.30Q91.10 18.61 91.35 17.66L91.35 17.66L91.86 15.61L90.76 15.70L90.76 15.70Q90.54 15.70 90.43 15.53L90.43 15.53L90.43 15.53Q90.33 15.37 90.33 15.14L90.33 15.14L90.33 15.14Q90.33 14.69 90.65 14.24L90.65 14.24L90.65 14.24Q90.69 14.18 91.01 14.13L91.01 14.13L91.01 14.13Q91.33 14.08 91.80 14.02L91.80 14.02L92.29 13.97L92.90 11.34L92.90 11.34Q93.08 10.87 93.45 10.61L93.45 10.61L93.45 10.61Q93.82 10.35 94.14 10.35L94.14 10.35L94.14 10.35Q94.50 10.35 94.75 10.57L94.75 10.57L94.75 10.57Q95.01 10.78 95.02 11.07L95.02 11.07L94.38 13.77L94.38 13.77Q95.08 13.68 95.68 13.62L95.68 13.62L95.68 13.62Q96.28 13.55 96.63 13.55L96.63 13.55L96.63 13.55Q97.31 13.55 97.31 14.35L97.31 14.35L97.31 14.35Q97.31 14.65 97.05 14.89L97.05 14.89L97.05 14.89Q96.79 15.14 96.48 15.19L96.48 15.19L93.96 15.44ZM105.74 13.73L105.74 13.73Q105.68 13.68 105.68 13.61L105.68 13.61L105.68 13.61Q105.68 13.43 106.08 13.31L106.08 13.31L106.08 13.31Q106.47 13.19 107.18 13.19L107.18 13.19L107.18 13.19Q107.81 13.19 108.02 13.54L108.02 13.54L108.02 13.54Q108.24 13.90 108.29 14.45L108.29 14.45L108.29 14.45Q108.26 14.60 108.22 14.85L108.22 14.85L108.13 15.28L108.13 15.28Q108.65 14.67 109.68 14.09L109.68 14.09L109.68 14.09Q110.70 13.50 111.28 13.50L111.28 13.50L111.28 13.50Q112.18 13.50 112.53 13.81L112.53 13.81L112.53 13.81Q112.88 14.13 112.94 15.01L112.94 15.01L112.94 15.01Q113.60 14.38 114.47 13.94L114.47 13.94L114.47 13.94Q115.33 13.50 115.98 13.50L115.98 13.50L115.98 13.50Q116.66 13.50 117.24 13.78L117.24 13.78L117.24 13.78Q117.81 14.06 117.81 14.67L117.81 14.67L117.81 14.67Q117.81 14.83 117.80 14.92L117.80 14.92L117.80 14.92Q117.74 15.21 117.59 15.72L117.59 15.72L117.59 15.72Q117.44 16.24 117.36 16.47L117.36 16.47L117.36 16.47Q116.91 17.93 116.67 18.93L116.67 18.93L116.67 18.93Q116.43 19.93 116.37 20.88L116.37 20.88L116.63 21.76L116.63 21.76Q116.41 22.18 116.02 22.42L116.02 22.42L116.02 22.42Q115.64 22.66 114.90 22.66L114.90 22.66L114.90 22.66Q114.47 22.66 114.27 22.37L114.27 22.37L114.27 22.37Q114.07 22.09 114.07 21.65L114.07 21.65L114.07 21.65Q114.07 21.56 114.09 21.46L114.09 21.46L114.09 21.46Q114.11 21.35 114.11 21.26L114.11 21.26L114.11 21.26Q114.14 20.25 114.40 19.21L114.40 19.21L114.40 19.21Q114.66 18.18 115.08 16.88L115.08 16.88L115.08 16.88Q115.46 15.75 115.46 15.50L115.46 15.50L115.46 15.50Q115.46 15.39 115.43 15.27L115.43 15.27L115.43 15.27Q115.40 15.16 115.37 15.16L115.37 15.16L115.37 15.16Q114.95 15.16 114.01 15.55L114.01 15.55L114.01 15.55Q113.06 15.95 112.74 16.34L112.74 16.34L112.74 16.34Q112.40 17.44 111.60 20.92L111.60 20.92L111.50 21.42L111.50 21.42Q111.41 21.89 111.33 22.07L111.33 22.07L111.33 22.07Q111.24 22.25 111.01 22.34L111.01 22.34L111.01 22.34Q110.78 22.43 110.25 22.43L110.25 22.43L110.25 22.43Q109.01 22.43 109.01 21.92L109.01 21.92L109.01 21.92Q109.16 21.53 109.80 18.88L109.80 18.88L109.80 18.88Q110.20 17.24 110.70 15.26L110.70 15.26L110.70 15.26Q110.60 15.32 110.31 15.43L110.31 15.43L110.31 15.43Q109.44 15.77 108.81 16.13L108.81 16.13L108.81 16.13Q108.17 16.49 107.77 16.97L107.77 16.97L107.30 18.88L107.30 18.88Q107.19 19.31 107.10 19.68L107.10 19.68L107.10 19.68Q107.01 20.05 106.94 20.30L106.94 20.30L106.94 20.30Q106.85 20.61 106.82 21.13L106.82 21.13L106.82 21.13Q106.78 21.49 106.72 21.65L106.72 21.65L106.72 21.65Q106.65 21.82 106.41 21.91L106.41 21.91L106.41 21.91Q106.17 22.01 105.65 22.01L105.65 22.01L105.65 22.01Q105.05 22.01 104.75 21.89L104.75 21.89L104.75 21.89Q104.44 21.76 104.44 21.35L104.44 21.35L104.44 21.35Q104.44 21.15 104.90 19.24L104.90 19.24L104.90 19.24Q105.36 17.33 106.15 14.27L106.15 14.27L105.74 13.73ZM122.83 22.34L122.83 22.34Q121.06 22.34 120.25 21.64L120.25 21.64L120.25 21.64Q119.44 20.93 119.44 19.76L119.44 19.76L119.44 19.76Q119.44 18.05 120.30 16.60L120.30 16.60L120.30 16.60Q121.15 15.14 122.59 14.28L122.59 14.28L122.59 14.28Q124.02 13.43 125.67 13.43L125.67 13.43L125.67 13.43Q126.68 13.43 127.36 14.00L127.36 14.00L127.36 14.00Q128.05 14.56 128.05 15.66L128.05 15.66L128.05 15.66Q128.05 16.29 127.64 16.70L127.64 16.70L127.64 16.70Q127.24 17.10 126.48 17.41L126.48 17.41L126.48 17.41Q125.73 17.73 124.03 18.31L124.03 18.31L124.03 18.31Q122.50 18.81 121.55 19.15L121.55 19.15L121.55 19.15Q121.48 19.42 121.48 19.71L121.48 19.71L121.48 19.71Q121.48 20.21 121.90 20.48L121.90 20.48L121.90 20.48Q122.32 20.75 123.10 20.75L123.10 20.75L123.10 20.75Q123.58 20.75 124.21 20.56L124.21 20.56L124.21 20.56Q124.84 20.36 125.01 20.05L125.01 20.05L125.01 20.05Q125.62 18.94 126.12 18.94L126.12 18.94L126.12 18.94Q126.86 18.94 127.12 19.21L127.12 19.21L127.12 19.21Q127.38 19.49 127.40 19.84L127.40 19.84L127.40 19.84Q127.18 20.41 126.55 21.00L126.55 21.00L126.55 21.00Q125.92 21.58 124.95 21.96L124.95 21.96L124.95 21.96Q123.98 22.34 122.83 22.34L122.83 22.34ZM122.05 17.50L122.05 17.50Q123.84 16.92 124.99 16.43L124.99 16.43L124.99 16.43Q126.14 15.93 126.14 15.44L126.14 15.44L126.14 15.44Q126.14 15.23 125.91 15.09L125.91 15.09L125.91 15.09Q125.67 14.96 125.40 14.96L125.40 14.96L125.40 14.96Q124.86 14.96 124.17 15.37L124.17 15.37L124.17 15.37Q123.48 15.79 122.88 16.38L122.88 16.38L122.88 16.38Q122.29 16.97 122.05 17.50L122.05 17.50ZM137.76 8.62L137.76 8.62Q137.83 8.35 138.18 8.18L138.18 8.18L138.18 8.18Q138.53 8.01 138.93 8.01L138.93 8.01L138.93 8.01Q139.25 8.01 139.63 8.15L139.63 8.15L139.63 8.15Q140.01 8.30 140.01 8.57L140.01 8.57L138.88 13.00L138.88 13.00Q137.38 18.81 137.13 20.09L137.13 20.09L137.13 20.09Q137.02 20.63 137.02 20.92L137.02 20.92L137.02 20.92Q137.02 21.40 137.13 21.87L137.13 21.87L137.13 21.87Q137.09 21.98 136.85 22.09L136.85 22.09L136.85 22.09Q136.61 22.19 136.41 22.19L136.41 22.19L136.41 22.19Q136.05 22.19 135.62 22.10L135.62 22.10L135.62 22.10Q135.19 22.01 135.08 21.91L135.08 21.91L135.08 21.91Q134.92 21.76 134.92 21.33L134.92 21.33L134.92 21.33Q134.92 21.01 134.99 20.72L134.99 20.72L134.99 20.72Q134.61 21.26 133.85 21.61L133.85 21.61L133.85 21.61Q133.08 21.96 132.61 21.96L132.61 21.96L132.61 21.96Q129.86 21.96 129.86 18.99L129.86 18.99L129.86 18.99Q129.86 17.69 130.44 16.40L130.44 16.40L130.44 16.40Q131.03 15.10 132.12 14.26L132.12 14.26L132.12 14.26Q133.21 13.41 134.65 13.41L134.65 13.41L134.65 13.41Q135.04 13.41 135.53 13.72L135.53 13.72L135.53 13.72Q136.01 14.04 136.32 14.44L136.32 14.44L136.32 14.44Q136.72 12.76 137.02 11.65L137.02 11.65L137.02 11.65Q137.17 11.05 137.36 10.29L137.36 10.29L137.36 10.29Q137.54 9.52 137.76 8.62L137.76 8.62ZM135.92 16.11L135.92 16.11Q135.82 15.71 135.41 15.38L135.41 15.38L135.41 15.38Q135.01 15.05 134.75 15.05L134.75 15.05L134.75 15.05Q133.93 15.05 133.21 15.59L133.21 15.59L133.21 15.59Q132.49 16.13 132.06 16.99L132.06 16.99L132.06 16.99Q131.64 17.86 131.64 18.77L131.64 18.77L131.64 18.77Q131.64 19.46 131.89 20.00L131.89 20.00L131.89 20.00Q132.14 20.54 132.67 20.54L132.67 20.54L132.67 20.54Q133.12 20.54 133.72 20.24L133.72 20.24L133.72 20.24Q134.32 19.94 134.79 19.47L134.79 19.47L134.79 19.47Q135.26 18.99 135.37 18.49L135.37 18.49L135.92 16.11ZM142.36 11.27L142.36 11.27Q142.36 10.71 142.71 10.28L142.71 10.28L142.71 10.28Q143.06 9.85 143.69 9.85L143.69 9.85L143.69 9.85Q144.36 9.85 144.85 10.26L144.85 10.26L144.85 10.26Q145.35 10.67 145.35 11.20L145.35 11.20L145.35 11.20Q145.35 11.72 144.84 12.10L144.84 12.10L144.84 12.10Q144.34 12.47 143.67 12.47L143.67 12.47L143.67 12.47Q143.03 12.47 142.69 12.14L142.69 12.14L142.69 12.14Q142.36 11.81 142.36 11.27L142.36 11.27ZM144.25 14.45L144.25 14.45Q143.30 18.34 142.79 20.30L142.79 20.30L142.79 20.30Q142.72 20.59 142.72 20.93L142.72 20.93L142.74 21.44L142.74 21.44Q142.74 21.74 142.55 21.87L142.55 21.87L142.55 21.87Q142.36 22.00 141.75 22.01L141.75 22.01L141.75 22.01Q141.15 22.01 140.85 21.89L140.85 21.89L140.85 21.89Q140.54 21.76 140.54 21.35L140.54 21.35L140.54 21.35Q140.54 21.15 141.00 19.24L141.00 19.24L141.00 19.24Q141.46 17.33 142.25 14.27L142.25 14.27L141.84 13.73L141.84 13.73Q141.78 13.68 141.78 13.61L141.78 13.61L141.78 13.61Q141.78 13.43 142.18 13.31L142.18 13.31L142.18 13.31Q142.58 13.19 143.28 13.19L143.28 13.19L143.28 13.19Q143.89 13.19 144.06 13.54L144.06 13.54L144.06 13.54Q144.23 13.90 144.25 14.45L144.25 14.45ZM153.13 21.02L153.13 21.02Q153.17 21.49 153.26 21.87L153.26 21.87L153.26 21.87Q153.22 21.98 152.94 22.09L152.94 22.09L152.94 22.09Q152.67 22.19 152.47 22.19L152.47 22.19L152.47 22.19Q151.82 22.19 151.54 22.01L151.54 22.01L151.54 22.01Q151.26 21.82 151.26 21.44L151.26 21.44L151.26 21.44Q151.26 21.08 151.33 20.72L151.33 20.72L151.33 20.72Q150.94 21.26 150.17 21.61L150.17 21.61L150.17 21.61Q149.41 21.96 148.94 21.96L148.94 21.96L148.94 21.96Q147.73 21.96 146.93 21.26L146.93 21.26L146.93 21.26Q146.13 20.56 146.13 19.01L146.13 19.01L146.13 19.01Q146.13 17.55 146.82 16.26L146.82 16.26L146.82 16.26Q147.52 14.98 148.74 14.19L148.74 14.19L148.74 14.19Q149.97 13.41 151.46 13.41L151.46 13.41L151.46 13.41Q151.75 13.41 152.22 13.56L152.22 13.56L152.22 13.56Q152.68 13.72 153.16 14.09L153.16 14.09L153.16 14.09Q153.64 14.45 153.96 15.03L153.96 15.03L153.96 15.03Q154.11 15.03 154.30 15.17L154.30 15.17L154.30 15.17Q154.50 15.32 154.50 15.46L154.50 15.46L154.50 15.46Q154.50 15.62 154.45 15.79L154.45 15.79L153.13 21.02ZM152.32 15.98L152.32 15.98Q152.22 15.59 151.90 15.32L151.90 15.32L151.90 15.32Q151.59 15.05 151.33 15.05L151.33 15.05L151.33 15.05Q150.51 15.05 149.78 15.63L149.78 15.63L149.78 15.63Q149.05 16.22 148.60 17.08L148.60 17.08L148.60 17.08Q148.15 17.95 148.15 18.72L148.15 18.72L148.15 18.72Q148.15 19.48 148.33 19.96L148.33 19.96L148.33 19.96Q148.51 20.45 149.03 20.45L149.03 20.45L149.03 20.45Q149.48 20.45 150.06 20.18L150.06 20.18L150.06 20.18Q150.65 19.91 151.11 19.45L151.11 19.45L151.11 19.45Q151.57 18.99 151.71 18.49L151.71 18.49L152.32 15.98ZM167.91 14.99L167.91 14.99Q167.70 14.89 167.37 14.89L167.37 14.89L167.37 14.89Q166.56 14.89 165.75 15.21L165.75 15.21L165.75 15.21Q164.94 15.53 164.94 16.04L164.94 16.04L164.94 16.04Q164.94 16.40 165.27 16.61L165.27 16.61L165.27 16.61Q165.59 16.83 166.29 17.10L166.29 17.10L166.29 17.10Q167.05 17.41 167.52 17.68L167.52 17.68L167.52 17.68Q167.99 17.95 168.34 18.46L168.34 18.46L168.34 18.46Q168.69 18.97 168.69 19.76L168.69 19.76L168.69 19.76Q168.69 21.06 167.62 21.75L167.62 21.75L167.62 21.75Q166.55 22.45 164.75 22.45L164.75 22.45L164.75 22.45Q163.86 22.45 163.11 22.18L163.11 22.18L163.11 22.18Q162.35 21.91 161.91 21.48L161.91 21.48L161.91 21.48Q161.47 21.06 161.43 20.65L161.43 20.65L161.43 20.65Q161.43 20.21 161.81 19.94L161.81 19.94L161.81 19.94Q162.19 19.66 162.87 19.57L162.87 19.57L162.87 19.57Q162.89 19.93 163.25 20.24L163.25 20.24L163.25 20.24Q163.61 20.56 164.11 20.75L164.11 20.75L164.11 20.75Q164.60 20.93 164.96 20.93L164.96 20.93L164.96 20.93Q165.57 20.93 166.08 20.60L166.08 20.60L166.08 20.60Q166.58 20.27 166.58 19.82L166.58 19.82L166.58 19.82Q166.58 18.99 164.98 18.50L164.98 18.50L164.98 18.50Q163.95 18.20 163.41 17.53L163.41 17.53L163.41 17.53Q162.86 16.87 162.86 16.13L162.86 16.13L162.86 16.13Q162.86 14.67 164.18 14.03L164.18 14.03L164.18 14.03Q165.50 13.39 167.55 13.39L167.55 13.39L167.55 13.39Q168.71 13.39 169.34 13.66L169.34 13.66L169.34 13.66Q169.97 13.93 169.97 14.60L169.97 14.60L169.97 14.60Q169.97 15.05 169.63 15.39L169.63 15.39L169.63 15.39Q169.30 15.73 168.69 15.73L168.69 15.73L168.69 15.73Q168.15 15.73 168.00 15.65L168.00 15.65L168.00 15.65Q167.84 15.57 167.82 15.37L167.82 15.37L167.82 15.37Q167.82 15.19 167.91 14.99L167.91 14.99ZM174.53 22.34L174.53 22.34Q172.77 22.34 171.96 21.64L171.96 21.64L171.96 21.64Q171.15 20.93 171.15 19.76L171.15 19.76L171.15 19.76Q171.15 18.05 172.00 16.60L172.00 16.60L172.00 16.60Q172.86 15.14 174.29 14.28L174.29 14.28L174.29 14.28Q175.72 13.43 177.37 13.43L177.37 13.43L177.37 13.43Q178.38 13.43 179.07 14.00L179.07 14.00L179.07 14.00Q179.75 14.56 179.75 15.66L179.75 15.66L179.75 15.66Q179.75 16.29 179.34 16.70L179.34 16.70L179.34 16.70Q178.94 17.10 178.18 17.41L178.18 17.41L178.18 17.41Q177.43 17.73 175.74 18.31L175.74 18.31L175.74 18.31Q174.21 18.81 173.25 19.15L173.25 19.15L173.25 19.15Q173.18 19.42 173.18 19.71L173.18 19.71L173.18 19.71Q173.18 20.21 173.60 20.48L173.60 20.48L173.60 20.48Q174.03 20.75 174.80 20.75L174.80 20.75L174.80 20.75Q175.29 20.75 175.92 20.56L175.92 20.56L175.92 20.56Q176.55 20.36 176.71 20.05L176.71 20.05L176.71 20.05Q177.32 18.94 177.82 18.94L177.82 18.94L177.82 18.94Q178.56 18.94 178.82 19.21L178.82 19.21L178.82 19.21Q179.08 19.49 179.10 19.84L179.10 19.84L179.10 19.84Q178.89 20.41 178.26 21.00L178.26 21.00L178.26 21.00Q177.63 21.58 176.65 21.96L176.65 21.96L176.65 21.96Q175.68 22.34 174.53 22.34L174.53 22.34ZM173.76 17.50L173.76 17.50Q175.54 16.92 176.69 16.43L176.69 16.43L176.69 16.43Q177.84 15.93 177.84 15.44L177.84 15.44L177.84 15.44Q177.84 15.23 177.61 15.09L177.61 15.09L177.61 15.09Q177.37 14.96 177.10 14.96L177.10 14.96L177.10 14.96Q176.56 14.96 175.87 15.37L175.87 15.37L175.87 15.37Q175.18 15.79 174.58 16.38L174.58 16.38L174.58 16.38Q173.99 16.97 173.76 17.50L173.76 17.50ZM189.35 19.84L189.35 19.84Q189.14 20.41 188.51 21.00L188.51 21.00L188.51 21.00Q187.88 21.58 186.91 21.96L186.91 21.96L186.91 21.96Q185.93 22.34 184.78 22.34L184.78 22.34L184.78 22.34Q183.02 22.34 182.17 21.61L182.17 21.61L182.17 21.61Q181.33 20.88 181.33 19.71L181.33 19.71L181.33 19.71Q181.33 18.02 182.19 16.57L182.19 16.57L182.19 16.57Q183.05 15.12 184.51 14.27L184.51 14.27L184.51 14.27Q185.97 13.43 187.63 13.43L187.63 13.43L187.63 13.43Q188.65 13.43 189.33 14.03L189.33 14.03L189.33 14.03Q190.00 14.63 190.00 15.66L190.00 15.66L190.00 15.66Q190.00 16.06 189.68 16.32L189.68 16.32L189.68 16.32Q189.35 16.58 188.81 16.58L188.81 16.58L188.81 16.58Q188.38 16.58 188.23 16.38L188.23 16.38L188.23 16.38Q188.08 16.18 188.08 15.86L188.08 15.86L188.09 15.44L188.09 15.44Q188.09 15.23 187.86 15.09L187.86 15.09L187.86 15.09Q187.63 14.96 187.36 14.96L187.36 14.96L187.36 14.96Q186.80 14.96 185.85 15.62L185.85 15.62L185.85 15.62Q184.91 16.29 184.20 17.38L184.20 17.38L184.20 17.38Q183.49 18.47 183.49 19.71L183.49 19.71L183.49 19.71Q183.49 20.21 183.88 20.48L183.88 20.48L183.88 20.48Q184.28 20.75 185.05 20.75L185.05 20.75L185.05 20.75Q185.54 20.75 186.17 20.56L186.17 20.56L186.17 20.56Q186.80 20.36 186.96 20.05L186.96 20.05L186.96 20.05Q187.57 18.94 188.08 18.94L188.08 18.94L188.08 18.94Q188.81 18.94 189.08 19.21L189.08 19.21L189.08 19.21Q189.34 19.49 189.35 19.84L189.35 19.84ZM194.94 22.34L194.94 22.34Q193.36 22.34 192.48 21.26L192.48 21.26L192.48 21.26Q191.60 20.18 191.60 18.50L191.60 18.50L191.60 18.50Q191.60 17.10 192.27 15.86L192.27 15.86L192.27 15.86Q192.95 14.62 194.12 13.86L194.12 13.86L194.12 13.86Q195.29 13.10 196.69 13.10L196.69 13.10L196.69 13.10Q198.08 13.10 198.97 14.01L198.97 14.01L198.97 14.01Q199.86 14.92 199.86 16.69L199.86 16.69L199.86 16.69Q199.86 17.93 199.17 19.26L199.17 19.26L199.17 19.26Q198.49 20.59 197.35 21.46L197.35 21.46L197.35 21.46Q196.20 22.34 194.94 22.34L194.94 22.34ZM195.21 20.90L195.21 20.90Q195.79 20.90 196.38 20.18L196.38 20.18L196.38 20.18Q196.96 19.46 197.34 18.36L197.34 18.36L197.34 18.36Q197.72 17.26 197.72 16.22L197.72 16.22L197.72 16.22Q197.72 14.62 196.38 14.62L196.38 14.62L196.38 14.62Q195.65 14.62 195.03 15.32L195.03 15.32L195.03 15.32Q194.42 16.02 194.06 17.05L194.06 17.05L194.06 17.05Q193.70 18.09 193.70 18.99L193.70 18.99L193.70 18.99Q193.70 19.51 193.94 19.95L193.94 19.95L193.94 19.95Q194.17 20.39 194.52 20.65L194.52 20.65L194.52 20.65Q194.87 20.90 195.21 20.90L195.21 20.90ZM202.77 13.73L202.77 13.73Q202.71 13.68 202.71 13.61L202.71 13.61L202.71 13.61Q202.71 13.43 203.11 13.31L203.11 13.31L203.11 13.31Q203.50 13.19 204.21 13.19L204.21 13.19L204.21 13.19Q204.85 13.19 205.16 13.53L205.16 13.53L205.16 13.53Q205.47 13.86 205.52 14.33L205.52 14.33L205.20 15.50L205.20 15.50Q205.57 14.98 206.26 14.50L206.26 14.50L206.26 14.50Q206.94 14.02 207.64 13.73L207.64 13.73L207.64 13.73Q208.35 13.45 208.80 13.45L208.80 13.45L208.80 13.45Q209.75 13.45 210.18 13.80L210.18 13.80L210.18 13.80Q210.61 14.15 210.61 14.90L210.61 14.90L210.61 14.90Q209.55 17.68 209.21 20.88L209.21 20.88L209.46 21.76L209.46 21.76Q209.25 22.18 208.86 22.42L208.86 22.42L208.86 22.42Q208.47 22.66 207.73 22.66L207.73 22.66L207.73 22.66Q207.30 22.66 207.10 22.37L207.10 22.37L207.10 22.37Q206.91 22.09 206.91 21.65L206.91 21.65L206.91 21.65Q206.91 20.45 207.26 19.00L207.26 19.00L207.26 19.00Q207.61 17.55 208.08 16.04L208.08 16.04L208.08 16.04Q208.26 15.46 208.26 15.44L208.26 15.44L208.26 15.44Q208.26 15.19 207.97 15.19L207.97 15.19L207.97 15.19Q207.57 15.19 206.77 15.75L206.77 15.75L206.77 15.75Q205.97 16.31 205.12 17.63L205.12 17.63L205.12 17.63Q204.28 18.95 203.76 21.10L203.76 21.10L203.76 21.10Q203.72 21.20 203.67 21.49L203.67 21.49L203.67 21.49Q203.61 21.78 203.38 21.90L203.38 21.90L203.38 21.90Q203.14 22.01 202.62 22.01L202.62 22.01L202.62 22.01Q202.03 22.01 201.75 21.89L201.75 21.89L201.75 21.89Q201.47 21.76 201.47 21.35L201.47 21.35L201.47 21.35Q201.52 21.10 201.63 20.74L201.63 20.74L201.63 20.74Q202.68 16.54 203.23 14.27L203.23 14.27L202.77 13.73ZM220.29 8.62L220.29 8.62Q220.36 8.35 220.71 8.18L220.71 8.18L220.71 8.18Q221.06 8.01 221.46 8.01L221.46 8.01L221.46 8.01Q221.78 8.01 222.16 8.15L222.16 8.15L222.16 8.15Q222.54 8.30 222.54 8.57L222.54 8.57L221.41 13.00L221.41 13.00Q219.91 18.81 219.66 20.09L219.66 20.09L219.66 20.09Q219.55 20.63 219.55 20.92L219.55 20.92L219.55 20.92Q219.55 21.40 219.66 21.87L219.66 21.87L219.66 21.87Q219.62 21.98 219.38 22.09L219.38 22.09L219.38 22.09Q219.14 22.19 218.94 22.19L218.94 22.19L218.94 22.19Q218.58 22.19 218.15 22.10L218.15 22.10L218.15 22.10Q217.72 22.01 217.61 21.91L217.61 21.91L217.61 21.91Q217.45 21.76 217.45 21.33L217.45 21.33L217.45 21.33Q217.45 21.01 217.52 20.72L217.52 20.72L217.52 20.72Q217.14 21.26 216.38 21.61L216.38 21.61L216.38 21.61Q215.61 21.96 215.14 21.96L215.14 21.96L215.14 21.96Q212.39 21.96 212.39 18.99L212.39 18.99L212.39 18.99Q212.39 17.69 212.97 16.40L212.97 16.40L212.97 16.40Q213.56 15.10 214.65 14.26L214.65 14.26L214.65 14.26Q215.74 13.41 217.18 13.41L217.18 13.41L217.18 13.41Q217.57 13.41 218.06 13.72L218.06 13.72L218.06 13.72Q218.54 14.04 218.85 14.44L218.85 14.44L218.85 14.44Q219.25 12.76 219.55 11.65L219.55 11.65L219.55 11.65Q219.70 11.05 219.89 10.29L219.89 10.29L219.89 10.29Q220.07 9.52 220.29 8.62L220.29 8.62ZM218.45 16.11L218.45 16.11Q218.35 15.71 217.94 15.38L217.94 15.38L217.94 15.38Q217.54 15.05 217.28 15.05L217.28 15.05L217.28 15.05Q216.46 15.05 215.74 15.59L215.74 15.59L215.74 15.59Q215.02 16.13 214.59 16.99L214.59 16.99L214.59 16.99Q214.17 17.86 214.17 18.77L214.17 18.77L214.17 18.77Q214.17 19.46 214.42 20.00L214.42 20.00L214.42 20.00Q214.67 20.54 215.20 20.54L215.20 20.54L215.20 20.54Q215.65 20.54 216.25 20.24L216.25 20.24L216.25 20.24Q216.85 19.94 217.32 19.47L217.32 19.47L217.32 19.47Q217.79 18.99 217.90 18.49L217.90 18.49L218.45 16.11Z" transform="rotate(0 111.17999297380447 15.65000057220459)"></path><defs id="SvgjsDefs1028"></defs></svg></g></svg>